<svg xmlns="http://www.w3.org/2000/svg" xmlns:xlink="http://www.w3.org/1999/xlink" width="820" height="436.014" viewBox="0 0 820 436.014">
  <defs>
    <clipPath id="clip-path">
      <rect id="Rect치ngulo_374959" data-name="Rect치ngulo 374959" width="140.498" height="140.498" transform="translate(0 99.348) rotate(-45)" fill="none" stroke="#6e40fc" stroke-width="1"/>
    </clipPath>
    <clipPath id="clip-path-2">
      <rect id="Rect치ngulo_383856" data-name="Rect치ngulo 383856" width="247.539" height="257.44" transform="translate(0 0)" fill="#fff" stroke="#707070" stroke-width="1"/>
    </clipPath>
  </defs>
  <g id="Grupo_1090315" data-name="Grupo 1090315" transform="translate(-390 -1525.986)">
    <path id="Trazado_823658" data-name="Trazado 823658" d="M0,0H820V436H0Z" transform="translate(390 1525.986)" fill="#e9e2fe"/>
    <g id="Grupo_1077588" data-name="Grupo 1077588" transform="translate(1011 1721.987)" opacity="0.37">
      <g id="Grupo_1067147" data-name="Grupo 1067147" transform="translate(0 40.999)" clip-path="url(#clip-path)">
        <circle id="Elipse_8509" data-name="Elipse 8509" cx="91.623" cy="91.623" r="91.623" transform="translate(7.723 7.723)" fill="none" stroke="#6e40fc" stroke-miterlimit="10" stroke-width="0.5"/>
        <circle id="Elipse_8510" data-name="Elipse 8510" cx="72.976" cy="72.976" r="72.976" transform="translate(26.371 26.371)" fill="none" stroke="#6e40fc" stroke-miterlimit="10" stroke-width="0.5"/>
        <circle id="Elipse_8511" data-name="Elipse 8511" cx="54.33" cy="54.33" r="54.33" transform="translate(45.017 45.017)" fill="none" stroke="#6e40fc" stroke-miterlimit="10" stroke-width="0.5"/>
        <circle id="Elipse_8512" data-name="Elipse 8512" cx="35.683" cy="35.683" r="35.683" transform="translate(63.664 63.664)" fill="none" stroke="#6e40fc" stroke-miterlimit="10" stroke-width="0.5"/>
        <circle id="Elipse_8513" data-name="Elipse 8513" cx="17.036" cy="17.036" r="17.036" transform="translate(82.312 82.312)" fill="none" stroke="#6e40fc" stroke-miterlimit="10" stroke-width="0.5"/>
      </g>
    </g>
    <g id="Enmascarar_grupo_1059131" data-name="Enmascarar grupo 1059131" transform="translate(390 1704.56)" opacity="0.447" clip-path="url(#clip-path-2)">
      <path id="Elipse_9678" data-name="Elipse 9678" d="M153.644,84.686A68.958,68.958,0,1,0,222.6,153.644a69.037,69.037,0,0,0-68.958-68.958m0-84.686A153.644,153.644,0,1,1,0,153.644,153.644,153.644,0,0,1,153.644,0Z" transform="translate(-122.189 62.663)" fill="#ccbcfd"/>
    </g>
    <path id="Trazado_823659" data-name="Trazado 823659" d="M93.551,80.08a94.34,94.34,0,0,1-33.606-6.135,94.335,94.335,0,0,1-28.3-16.9,94.713,94.713,0,0,1-20.735-25.4A93.692,93.692,0,0,1,0,0H187.1a93.688,93.688,0,0,1-10.909,31.645,94.712,94.712,0,0,1-20.736,25.4,94.336,94.336,0,0,1-28.3,16.9A94.344,94.344,0,0,1,93.551,80.08Z" transform="translate(923.244 1525.986)" fill="#ccbdfb"/>
    <g id="Grupo_1090316" data-name="Grupo 1090316">
      <path id="Trazado_823660" data-name="Trazado 823660" d="M0,0H555.641" transform="translate(527.468 1660.864)" fill="none" stroke="#12263f" stroke-width="2"/>
      <path id="Trazado_823661" data-name="Trazado 823661" d="M0,75V0" transform="translate(623 1594.986)" fill="none" stroke="#12263f" stroke-width="2"/>
      <path id="Trazado_823662" data-name="Trazado 823662" d="M0,299.7V0" transform="translate(732.979 1594.739)" fill="none" stroke="#12263f" stroke-width="2"/>
      <path id="Trazado_823663" data-name="Trazado 823663" d="M0,299V0" transform="translate(845 1594.986)" fill="none" stroke="#12263f" stroke-width="2"/>
      <path id="Trazado_823664" data-name="Trazado 823664" d="M0,189V0" transform="translate(1045 1594.986)" fill="none" stroke="#12263f" stroke-width="2"/>
      <path id="Trazado_823665" data-name="Trazado 823665" d="M0,0H200V39H0Z" transform="translate(697 1883.986)" fill="#6e40fb"/>
      <path id="Trazado_823666" data-name="Trazado 823666" d="M0,0H456V39H0Z" transform="translate(615 1565.986)" fill="#6e40fb"/>
      <path id="Trazado_823667" data-name="Trazado 823667" d="M0,0H134V56H0Z" transform="translate(408 1632.986)" fill="#6e40fb"/>
      <path id="Trazado_823668" data-name="Trazado 823668" d="M0,0H157V43H0Z" transform="translate(567 1638.986)" fill="#ccbcfd"/>
      <path id="Trazado_823669" data-name="Trazado 823669" d="M0,0H134V56H0Z" transform="translate(1059 1632.986)" fill="#6e40fb"/>
      <path id="Trazado_823670" data-name="Trazado 823670" d="M7.6,14.023H2.836L1.766,17H.219L4.563,5.625H5.875L10.227,17H8.688ZM3.289,12.8H7.156L5.219,7.477Zm13.164,1.961a1.064,1.064,0,0,0-.441-.91,4.249,4.249,0,0,0-1.539-.559,7.277,7.277,0,0,1-1.742-.562,2.479,2.479,0,0,1-.953-.781,1.869,1.869,0,0,1-.309-1.078,2.193,2.193,0,0,1,.879-1.758,3.432,3.432,0,0,1,2.246-.719,3.532,3.532,0,0,1,2.332.742,2.357,2.357,0,0,1,.895,1.9H16.367a1.3,1.3,0,0,0-.5-1.023,1.888,1.888,0,0,0-1.27-.43,1.976,1.976,0,0,0-1.234.344,1.082,1.082,0,0,0-.445.9.877.877,0,0,0,.414.789,5.1,5.1,0,0,0,1.5.508,7.8,7.8,0,0,1,1.754.578,2.558,2.558,0,0,1,1,.809,1.988,1.988,0,0,1,.324,1.152,2.163,2.163,0,0,1-.906,1.816,3.8,3.8,0,0,1-2.352.684,4.257,4.257,0,0,1-1.8-.359,2.922,2.922,0,0,1-1.223-1A2.42,2.42,0,0,1,11.18,14.4h1.445a1.5,1.5,0,0,0,.582,1.152,2.258,2.258,0,0,0,1.434.426,2.331,2.331,0,0,0,1.316-.332A1.02,1.02,0,0,0,16.453,14.758ZM21.742,6.5V8.547H23.32V9.664H21.742v5.249a1.173,1.173,0,0,0,.211.763.888.888,0,0,0,.719.254,3.5,3.5,0,0,0,.688-.094V17a4.215,4.215,0,0,1-1.109.155,1.8,1.8,0,0,1-1.461-.586,2.517,2.517,0,0,1-.492-1.664V9.664H18.758V8.547H20.3V6.5Zm6.773,10.656a3.693,3.693,0,0,1-2.8-1.129,4.19,4.19,0,0,1-1.078-3.02v-.266a5.073,5.073,0,0,1,.48-2.246,3.748,3.748,0,0,1,1.344-1.547,3.378,3.378,0,0,1,1.871-.559A3.166,3.166,0,0,1,30.9,9.477a4.7,4.7,0,0,1,.914,3.109v.6H26.086a3,3,0,0,0,.73,2.02,2.3,2.3,0,0,0,1.777.77,2.517,2.517,0,0,0,1.3-.312,3.259,3.259,0,0,0,.93-.828l.883.688A3.55,3.55,0,0,1,28.516,17.156Zm-.18-7.578a1.928,1.928,0,0,0-1.469.637A3.1,3.1,0,0,0,26.133,12h4.234v-.109a2.753,2.753,0,0,0-.594-1.707A1.815,1.815,0,0,0,28.336,9.578Zm9.234.266a4.331,4.331,0,0,0-.711-.055A1.9,1.9,0,0,0,34.93,11v6H33.484V8.547h1.406l.023.977A2.251,2.251,0,0,1,36.93,8.391a1.477,1.477,0,0,1,.641.109ZM40.469,17H39.023V8.547h1.445ZM38.906,6.3a.863.863,0,0,1,.215-.594.807.807,0,0,1,.637-.242.819.819,0,0,1,.641.242.854.854,0,0,1,.219.594.826.826,0,0,1-.219.586.834.834,0,0,1-.641.234.821.821,0,0,1-.637-.234A.834.834,0,0,1,38.906,6.3Zm8.8,8.453a1.064,1.064,0,0,0-.441-.91,4.249,4.249,0,0,0-1.539-.559,7.277,7.277,0,0,1-1.742-.562,2.479,2.479,0,0,1-.953-.781,1.869,1.869,0,0,1-.309-1.078A2.193,2.193,0,0,1,43.6,9.109a3.432,3.432,0,0,1,2.246-.719,3.532,3.532,0,0,1,2.332.742,2.357,2.357,0,0,1,.895,1.9H47.617a1.3,1.3,0,0,0-.5-1.023,1.888,1.888,0,0,0-1.27-.43,1.976,1.976,0,0,0-1.234.344,1.082,1.082,0,0,0-.445.9.877.877,0,0,0,.414.789,5.1,5.1,0,0,0,1.5.508,7.8,7.8,0,0,1,1.754.578,2.558,2.558,0,0,1,1,.809,1.988,1.988,0,0,1,.324,1.152,2.163,2.163,0,0,1-.906,1.816,3.8,3.8,0,0,1-2.352.684,4.257,4.257,0,0,1-1.8-.359,2.922,2.922,0,0,1-1.223-1A2.42,2.42,0,0,1,42.43,14.4h1.445a1.5,1.5,0,0,0,.582,1.152,2.258,2.258,0,0,0,1.434.426,2.331,2.331,0,0,0,1.316-.332A1.02,1.02,0,0,0,47.7,14.758Zm5.688-1.672-.906.945V17H51.039V5h1.445v7.258l.773-.93,2.633-2.781h1.758l-3.289,3.531L58.031,17h-1.7Zm15.719.938H64.5L62.945,17h-1.57l6.18-11.375h1.289L71.094,17H69.648ZM65.148,12.8h3.742l-.945-5.3Zm14.961.016a6.706,6.706,0,0,1-.7,2.32,3.949,3.949,0,0,1-1.336,1.543,3.058,3.058,0,0,1-1.766.488,2.815,2.815,0,0,1-2.25-.992L73.3,20.25H71.891l2.031-11.7L75.2,8.539l-.156.945a3.207,3.207,0,0,1,2.508-1.094,2.358,2.358,0,0,1,1.9.9,3.954,3.954,0,0,1,.719,2.391,8.412,8.412,0,0,1-.039.969Zm-1.391-.16L78.758,12a2.969,2.969,0,0,0-.434-1.744,1.525,1.525,0,0,0-1.254-.636,2.508,2.508,0,0,0-2.117,1.163l-.711,4.05a1.769,1.769,0,0,0,1.711,1.155,2.224,2.224,0,0,0,1.793-.823A4.777,4.777,0,0,0,78.719,12.652Zm10.18.16a6.706,6.706,0,0,1-.7,2.32,3.949,3.949,0,0,1-1.336,1.543,3.058,3.058,0,0,1-1.766.488,2.815,2.815,0,0,1-2.25-.992l-.758,4.078H80.68l2.031-11.7,1.281-.008-.156.945a3.207,3.207,0,0,1,2.508-1.094,2.358,2.358,0,0,1,1.9.9,3.954,3.954,0,0,1,.719,2.391,8.412,8.412,0,0,1-.039.969Zm-1.391-.16L87.547,12a2.969,2.969,0,0,0-.434-1.744,1.525,1.525,0,0,0-1.254-.636,2.508,2.508,0,0,0-2.117,1.163l-.711,4.05a1.769,1.769,0,0,0,1.711,1.155,2.224,2.224,0,0,0,1.793-.823A4.777,4.777,0,0,0,87.508,12.652ZM91.563,17H90.156L92.234,5h1.414Zm3.844,0H94l1.469-8.453h1.406ZM96.57,5.461a.774.774,0,0,1,.6.215.8.8,0,0,1,.238.605.834.834,0,0,1-.836.852.779.779,0,0,1-.6-.211.764.764,0,0,1-.227-.594.886.886,0,0,1,.234-.609A.826.826,0,0,1,96.57,5.461Zm4.719,10.523a2.145,2.145,0,0,0,1.367-.441,2.1,2.1,0,0,0,.8-1.2l1.336-.008a3.014,3.014,0,0,1-.637,1.453,3.68,3.68,0,0,1-2.926,1.367,3.017,3.017,0,0,1-1.785-.551,3.084,3.084,0,0,1-1.074-1.492,4.972,4.972,0,0,1-.234-2.152l.039-.391a5.605,5.605,0,0,1,.711-2.18,4.11,4.11,0,0,1,1.469-1.5,3.648,3.648,0,0,1,2-.5,2.857,2.857,0,0,1,2.125.891,3.08,3.08,0,0,1,.8,2.18l-1.32-.008a2.029,2.029,0,0,0-.461-1.34,1.607,1.607,0,0,0-1.2-.543,2.254,2.254,0,0,0-1.832.82,4.3,4.3,0,0,0-.91,2.359l-.023.2a6.776,6.776,0,0,0-.016,1.031,2.355,2.355,0,0,0,.516,1.445A1.656,1.656,0,0,0,101.289,15.984Zm9.8,1.016a1.893,1.893,0,0,1-.055-.445l.023-.445a3.465,3.465,0,0,1-2.469,1.047,2.526,2.526,0,0,1-1.816-.707,2.14,2.14,0,0,1-.637-1.73,2.6,2.6,0,0,1,1.176-2.1,5.005,5.005,0,0,1,2.887-.754l1.477.008.094-.672a1.545,1.545,0,0,0-.293-1.2,1.414,1.414,0,0,0-1.113-.457,2.181,2.181,0,0,0-1.285.355,1.513,1.513,0,0,0-.684.98l-1.422.008a2.266,2.266,0,0,1,.578-1.316,3.363,3.363,0,0,1,1.3-.891,4.215,4.215,0,0,1,1.648-.3,2.8,2.8,0,0,1,2.055.8,2.484,2.484,0,0,1,.617,2.043l-.687,4.188-.039.6a2.949,2.949,0,0,0,.094.852l-.016.133Zm-2.219-1.094a2.466,2.466,0,0,0,1.285-.324,3.254,3.254,0,0,0,1.043-.941l.3-1.742-1.07-.008a4.054,4.054,0,0,0-2.047.422,1.554,1.554,0,0,0-.8,1.2,1.21,1.21,0,0,0,.277.988A1.321,1.321,0,0,0,108.875,15.906Zm9.3-9.406-.359,2.047h1.539l-.2,1.117h-1.531l-.883,5.258a1.833,1.833,0,0,0-.008.375.6.6,0,0,0,.664.609,4.05,4.05,0,0,0,.688-.078l-.109,1.18a3.847,3.847,0,0,1-1.031.141,1.476,1.476,0,0,1-1.266-.621,2.4,2.4,0,0,1-.328-1.629l.859-5.234h-1.492l.2-1.117h1.492l.359-2.047ZM121.125,17h-1.406l1.469-8.453h1.406Zm1.164-11.539a.774.774,0,0,1,.6.215.8.8,0,0,1,.238.605.834.834,0,0,1-.836.852.779.779,0,0,1-.6-.211.764.764,0,0,1-.227-.594.886.886,0,0,1,.234-.609A.826.826,0,0,1,122.289,5.461Zm5.844,2.93a3.047,3.047,0,0,1,1.82.578,3.285,3.285,0,0,1,1.121,1.551,4.8,4.8,0,0,1,.246,2.16l-.016.172a5.685,5.685,0,0,1-.734,2.23,4.309,4.309,0,0,1-1.516,1.551,3.7,3.7,0,0,1-2.039.523,3.052,3.052,0,0,1-1.816-.578,3.21,3.21,0,0,1-1.113-1.531,4.931,4.931,0,0,1-.25-2.133,5.76,5.76,0,0,1,.711-2.359,4.409,4.409,0,0,1,1.527-1.621A3.652,3.652,0,0,1,128.133,8.391Zm-2.875,4.531a4.8,4.8,0,0,0,0,1.023,2.507,2.507,0,0,0,.551,1.469,1.653,1.653,0,0,0,1.262.57,2.253,2.253,0,0,0,1.3-.348,2.919,2.919,0,0,0,1-1.121,4.721,4.721,0,0,0,.523-1.664,7.493,7.493,0,0,0,.023-1.211,2.6,2.6,0,0,0-.57-1.492,1.69,1.69,0,0,0-1.266-.578,2.3,2.3,0,0,0-1.859.859,4.245,4.245,0,0,0-.945,2.313Zm9.328-4.375.047,1.063a3.08,3.08,0,0,1,2.531-1.219q2.68,0,2.7,3.023V17h-1.445V11.406A1.946,1.946,0,0,0,138,10.055a1.675,1.675,0,0,0-1.277-.437,2.086,2.086,0,0,0-1.234.375,2.546,2.546,0,0,0-.828.984V17h-1.445V8.547Zm17.93,5.477H147.75L146.68,17h-1.547l4.344-11.375h1.313L155.141,17H153.6ZM148.2,12.8h3.867l-1.937-5.32Zm9.969-.25V17h-1.5V5.625h4.2a4.215,4.215,0,0,1,2.926.953A3.231,3.231,0,0,1,164.852,9.1a3.188,3.188,0,0,1-1.035,2.551,4.4,4.4,0,0,1-2.965.895Zm0-1.227h2.7a2.7,2.7,0,0,0,1.844-.567,2.075,2.075,0,0,0,.641-1.64,2.143,2.143,0,0,0-.641-1.628,2.525,2.525,0,0,0-1.758-.634h-2.781Zm10.2,5.68h-1.5V5.625h1.5Z" transform="translate(743 1575.986)" fill="#fff"/>
      <path id="Trazado_823671" data-name="Trazado 823671" d="M-14.106-3.4A4.251,4.251,0,0,1-15.6-.776a4.2,4.2,0,0,1-2.853.923,3.322,3.322,0,0,1-1.729-.487,3.077,3.077,0,0,1-1.15-1.34,5.006,5.006,0,0,1-.454-1.937,6.209,6.209,0,0,1,.051-1.172l.125-.879a6.633,6.633,0,0,1,1.688-3.79,4.26,4.26,0,0,1,3.27-1.351,3.19,3.19,0,0,1,2.38.97,3.86,3.86,0,0,1,.93,2.611h-1.37q-.1-2.241-1.758-2.417l-.242-.015a2.83,2.83,0,0,0-2.311,1.029,5.571,5.571,0,0,0-1.2,2.911l-.161,1.106-.044.645a3.625,3.625,0,0,0,.48,2.142A1.809,1.809,0,0,0-18.391-1a2.742,2.742,0,0,0,1.842-.535,3.558,3.558,0,0,0,1.11-1.838ZM-8.5-8.071a2.856,2.856,0,0,1,1.707.542A3.08,3.08,0,0,1-5.739-6.075,4.5,4.5,0,0,1-5.508-4.05l-.015.161A5.33,5.33,0,0,1-6.211-1.8,4.04,4.04,0,0,1-7.632-.344,3.465,3.465,0,0,1-9.543.146a2.861,2.861,0,0,1-1.7-.542A3.01,3.01,0,0,1-12.29-1.831a4.623,4.623,0,0,1-.234-2,5.4,5.4,0,0,1,.667-2.212,4.134,4.134,0,0,1,1.432-1.52A3.424,3.424,0,0,1-8.5-8.071Zm-2.7,4.248a4.5,4.5,0,0,0,0,.959,2.35,2.35,0,0,0,.516,1.377,1.55,1.55,0,0,0,1.183.535,2.112,2.112,0,0,0,1.216-.326,2.736,2.736,0,0,0,.938-1.051,4.426,4.426,0,0,0,.491-1.56,7.026,7.026,0,0,0,.022-1.135,2.439,2.439,0,0,0-.535-1.4,1.585,1.585,0,0,0-1.187-.542,2.16,2.16,0,0,0-1.743.806,3.98,3.98,0,0,0-.886,2.168Zm7.046-.154A6.166,6.166,0,0,1-3.479-6.16,3.779,3.779,0,0,1-2.2-7.617,2.931,2.931,0,0,1-.52-8.079a2.475,2.475,0,0,1,2.036.967l.762-4.138H3.6L1.655,0H.447L.586-.85a2.921,2.921,0,0,1-2.314,1,2.189,2.189,0,0,1-1.75-.861,3.75,3.75,0,0,1-.7-2.23A7.123,7.123,0,0,1-4.146-3.977Zm1.274.757A2.746,2.746,0,0,0-2.5-1.6,1.347,1.347,0,0,0-1.34-1,2.4,2.4,0,0,0,.7-2.159l.63-3.658a1.644,1.644,0,0,0-1.6-1.112,2.009,2.009,0,0,0-1.381.472,3.052,3.052,0,0,0-.908,1.383A5.7,5.7,0,0,0-2.871-3.22ZM7.178.146A2.857,2.857,0,0,1,4.863-.945a3.756,3.756,0,0,1-.7-2.717L4.2-3.977A5.273,5.273,0,0,1,4.9-6.13,4.068,4.068,0,0,1,6.3-7.6a3.273,3.273,0,0,1,1.787-.472A2.52,2.52,0,0,1,10-7.258a3.343,3.343,0,0,1,.762,2.124,6.207,6.207,0,0,1-.029.952l-.081.608H5.479a2.677,2.677,0,0,0,.355,1.831,1.683,1.683,0,0,0,1.454.784A2.819,2.819,0,0,0,9.456-2.014l.762.645A3.486,3.486,0,0,1,8.932-.245,3.643,3.643,0,0,1,7.178.146ZM8.02-6.965a1.937,1.937,0,0,0-1.432.557,3.956,3.956,0,0,0-.97,1.721L9.47-4.68,9.5-4.8a2.168,2.168,0,0,0-.3-1.534A1.4,1.4,0,0,0,8.02-6.965ZM14.875-.952a2.011,2.011,0,0,0,1.282-.414A1.968,1.968,0,0,0,16.9-2.49L18.157-2.5a2.826,2.826,0,0,1-.6,1.362,3.331,3.331,0,0,1-1.227.959,3.329,3.329,0,0,1-1.516.322A2.828,2.828,0,0,1,13.143-.37a2.891,2.891,0,0,1-1.007-1.4,4.661,4.661,0,0,1-.22-2.018l.037-.366A5.255,5.255,0,0,1,12.62-6.2,3.853,3.853,0,0,1,14-7.6a3.42,3.42,0,0,1,1.875-.472,2.678,2.678,0,0,1,1.992.835,2.888,2.888,0,0,1,.747,2.043L17.373-5.2a1.9,1.9,0,0,0-.432-1.256,1.507,1.507,0,0,0-1.128-.509A2.113,2.113,0,0,0,14.1-6.2a4.028,4.028,0,0,0-.853,2.212l-.022.19a6.352,6.352,0,0,0-.015.967,2.208,2.208,0,0,0,.483,1.355A1.553,1.553,0,0,0,14.875-.952ZM-37.39,13.486h-3.318L-42.356,23h-1.37l1.648-9.514H-45.4l.205-1.15h8.005Zm4.124,2.8-.623-.066a2.268,2.268,0,0,0-2.007,1.15L-36.87,23H-38.2l1.377-7.925,1.282-.007-.2.923a2.369,2.369,0,0,1,1.985-1.077,2.432,2.432,0,0,1,.63.11ZM-28.645,23a1.775,1.775,0,0,1-.051-.417l.022-.417a3.249,3.249,0,0,1-2.314.981,2.368,2.368,0,0,1-1.7-.663,2.006,2.006,0,0,1-.6-1.622,2.44,2.44,0,0,1,1.1-1.967,4.693,4.693,0,0,1,2.706-.707l1.384.007.088-.63a1.448,1.448,0,0,0-.275-1.124,1.326,1.326,0,0,0-1.044-.428,2.044,2.044,0,0,0-1.2.333,1.418,1.418,0,0,0-.641.919l-1.333.007a2.125,2.125,0,0,1,.542-1.234A3.153,3.153,0,0,1-30.74,15.2a3.951,3.951,0,0,1,1.545-.282,2.627,2.627,0,0,1,1.926.751,2.328,2.328,0,0,1,.579,1.915l-.645,3.926-.037.564a2.765,2.765,0,0,0,.088.8L-27.3,23Zm-2.08-1.025a2.312,2.312,0,0,0,1.2-.3,3.051,3.051,0,0,0,.978-.883l.286-1.633-1-.007a3.8,3.8,0,0,0-1.919.4,1.457,1.457,0,0,0-.754,1.121,1.135,1.135,0,0,0,.26.927A1.238,1.238,0,0,0-30.725,21.975Zm7.852-6.907-.19,1a3.124,3.124,0,0,1,2.432-1.143,1.966,1.966,0,0,1,1.655.776,3.016,3.016,0,0,1,.4,2.1L-19.446,23h-1.326l.872-5.209a2.777,2.777,0,0,0,.007-.666A1.1,1.1,0,0,0-21.1,16.079,2.5,2.5,0,0,0-23.2,17.352L-24.177,23H-25.5l1.377-7.925ZM-12.5,20.854q.11-.82-.9-1.157l-1.377-.4q-1.743-.6-1.685-1.992a2.195,2.195,0,0,1,.956-1.718,3.4,3.4,0,0,1,2.128-.656,2.838,2.838,0,0,1,1.952.7,2.216,2.216,0,0,1,.721,1.783l-1.318-.007a1.237,1.237,0,0,0-.374-.967,1.478,1.478,0,0,0-1.033-.388,1.93,1.93,0,0,0-1.187.337,1.233,1.233,0,0,0-.535.864q-.1.688.842,1l.667.183a4.291,4.291,0,0,1,1.934.916,1.748,1.748,0,0,1,.527,1.4,2.222,2.222,0,0,1-.483,1.289,2.764,2.764,0,0,1-1.172.839,3.919,3.919,0,0,1-1.56.267,3.092,3.092,0,0,1-2.08-.736,2.275,2.275,0,0,1-.791-1.857l1.326.007a1.4,1.4,0,0,0,.425,1.069,1.624,1.624,0,0,0,1.165.4,2.284,2.284,0,0,0,1.252-.3A1.169,1.169,0,0,0-12.5,20.854ZM-8.394,23H-9.712l1.948-11.25h1.326Zm7.017,0a1.775,1.775,0,0,1-.051-.417l.022-.417a3.249,3.249,0,0,1-2.314.981,2.368,2.368,0,0,1-1.7-.663,2.006,2.006,0,0,1-.6-1.622,2.44,2.44,0,0,1,1.1-1.967,4.693,4.693,0,0,1,2.706-.707l1.384.007.088-.63a1.448,1.448,0,0,0-.275-1.124,1.326,1.326,0,0,0-1.044-.428,2.044,2.044,0,0,0-1.2.333,1.418,1.418,0,0,0-.641.919l-1.333.007a2.125,2.125,0,0,1,.542-1.234A3.153,3.153,0,0,1-3.472,15.2a3.951,3.951,0,0,1,1.545-.282A2.627,2.627,0,0,1,0,15.672a2.328,2.328,0,0,1,.579,1.915l-.645,3.926-.037.564a2.765,2.765,0,0,0,.088.8L-.029,23Zm-2.08-1.025a2.312,2.312,0,0,0,1.2-.3,3.051,3.051,0,0,0,.978-.883l.286-1.633-1-.007a3.8,3.8,0,0,0-1.919.4,1.457,1.457,0,0,0-.754,1.121,1.135,1.135,0,0,0,.26.927A1.238,1.238,0,0,0-3.457,21.975Zm8.723-8.818-.337,1.919H6.372l-.183,1.047H4.753l-.828,4.929a1.719,1.719,0,0,0-.007.352.559.559,0,0,0,.623.571,3.8,3.8,0,0,0,.645-.073l-.1,1.106a3.606,3.606,0,0,1-.967.132,1.384,1.384,0,0,1-1.187-.582,2.252,2.252,0,0,1-.308-1.527l.806-4.907h-1.4l.183-1.047h1.4l.337-1.919Zm5.581,1.772a2.856,2.856,0,0,1,1.707.542A3.08,3.08,0,0,1,13.6,16.925a4.5,4.5,0,0,1,.231,2.025l-.015.161a5.33,5.33,0,0,1-.688,2.091,4.04,4.04,0,0,1-1.421,1.454,3.465,3.465,0,0,1-1.912.491A2.861,2.861,0,0,1,8.1,22.6a3.01,3.01,0,0,1-1.044-1.436,4.623,4.623,0,0,1-.234-2,5.4,5.4,0,0,1,.667-2.212,4.134,4.134,0,0,1,1.432-1.52A3.424,3.424,0,0,1,10.847,14.929Zm-2.7,4.248a4.5,4.5,0,0,0,0,.959,2.35,2.35,0,0,0,.516,1.377,1.55,1.55,0,0,0,1.183.535,2.112,2.112,0,0,0,1.216-.326A2.736,2.736,0,0,0,12,20.671a4.426,4.426,0,0,0,.491-1.56,7.026,7.026,0,0,0,.022-1.135,2.439,2.439,0,0,0-.535-1.4,1.585,1.585,0,0,0-1.187-.542,2.16,2.16,0,0,0-1.743.806,3.98,3.98,0,0,0-.886,2.168Zm11.594-2.893-.623-.066a2.268,2.268,0,0,0-2.007,1.15L16.143,23H14.817l1.377-7.925,1.282-.007-.2.923a2.369,2.369,0,0,1,1.985-1.077,2.432,2.432,0,0,1,.63.11Zm10.679,3.926H25.957l-1,2.791H23.5l4.072-10.664h1.23L32.886,23H31.443Zm-4.043-1.15h3.625l-1.816-4.988Zm9.346-.234V23H34.321V12.336h3.933A3.952,3.952,0,0,1,41,13.229,3.029,3.029,0,0,1,41.99,15.6a2.989,2.989,0,0,1-.97,2.391,4.128,4.128,0,0,1-2.78.839Zm0-1.15h2.527a2.526,2.526,0,0,0,1.729-.532,1.945,1.945,0,0,0,.6-1.537,2.009,2.009,0,0,0-.6-1.526,2.367,2.367,0,0,0-1.648-.594H35.728ZM45.293,23H43.887V12.336h1.406Z" transform="translate(475 1653.986)" fill="#fff"/>
      <path id="Trazado_823672" data-name="Trazado 823672" d="M-35.31-2.791h-4.468l-1,2.791h-1.45l4.072-10.664h1.23L-32.849,0h-1.443Zm-4.043-1.15h3.625l-1.816-4.988ZM-27.012-2.1a1,1,0,0,0-.414-.853,3.983,3.983,0,0,0-1.443-.524A6.822,6.822,0,0,1-30.5-4.006a2.324,2.324,0,0,1-.894-.732,1.752,1.752,0,0,1-.289-1.011A2.056,2.056,0,0,1-30.861-7.4a3.218,3.218,0,0,1,2.106-.674,3.311,3.311,0,0,1,2.186.7A2.21,2.21,0,0,1-25.73-5.6h-1.362a1.223,1.223,0,0,0-.472-.959,1.77,1.77,0,0,0-1.19-.4,1.852,1.852,0,0,0-1.157.322,1.014,1.014,0,0,0-.417.842.822.822,0,0,0,.388.74,4.776,4.776,0,0,0,1.4.476,7.308,7.308,0,0,1,1.644.542,2.4,2.4,0,0,1,.934.758,1.864,1.864,0,0,1,.3,1.08,2.028,2.028,0,0,1-.85,1.7,3.564,3.564,0,0,1-2.2.641A3.991,3.991,0,0,1-30.4-.19a2.74,2.74,0,0,1-1.146-.941,2.268,2.268,0,0,1-.414-1.307H-30.6a1.4,1.4,0,0,0,.546,1.08,2.117,2.117,0,0,0,1.344.4,2.185,2.185,0,0,0,1.234-.311A.956.956,0,0,0-27.012-2.1Zm4.958-7.742v1.919h1.479v1.047h-1.479v4.921a1.1,1.1,0,0,0,.2.715A.832.832,0,0,0-21.182-1a3.281,3.281,0,0,0,.645-.088V0a3.951,3.951,0,0,1-1.04.146A1.687,1.687,0,0,1-22.947-.4a2.36,2.36,0,0,1-.461-1.56V-6.877h-1.443V-7.925h1.443V-9.844ZM-15.7.146A3.463,3.463,0,0,1-18.325-.912a3.928,3.928,0,0,1-1.011-2.831v-.249a4.756,4.756,0,0,1,.45-2.106,3.514,3.514,0,0,1,1.26-1.45,3.167,3.167,0,0,1,1.754-.524,2.968,2.968,0,0,1,2.4,1.018,4.408,4.408,0,0,1,.857,2.915v.564h-5.369A2.817,2.817,0,0,0-17.3-1.681a2.153,2.153,0,0,0,1.666.721,2.36,2.36,0,0,0,1.216-.293,3.055,3.055,0,0,0,.872-.776l.828.645A3.328,3.328,0,0,1-15.7.146Zm-.168-7.1a1.807,1.807,0,0,0-1.377.6,2.9,2.9,0,0,0-.688,1.674h3.97v-.1a2.581,2.581,0,0,0-.557-1.6A1.7,1.7,0,0,0-15.872-6.958Zm8.657.249a4.061,4.061,0,0,0-.667-.051A1.786,1.786,0,0,0-9.69-5.625V0h-1.355V-7.925h1.318l.022.916a2.11,2.11,0,0,1,1.89-1.062,1.384,1.384,0,0,1,.6.1ZM-4.5,0H-5.852V-7.925H-4.5ZM-5.962-10.027a.809.809,0,0,1,.2-.557.756.756,0,0,1,.6-.227.768.768,0,0,1,.6.227.8.8,0,0,1,.205.557.774.774,0,0,1-.205.549.782.782,0,0,1-.6.22.77.77,0,0,1-.6-.22A.782.782,0,0,1-5.962-10.027ZM2.285-2.1a1,1,0,0,0-.414-.853A3.983,3.983,0,0,0,.428-3.479,6.822,6.822,0,0,1-1.2-4.006,2.324,2.324,0,0,1-2.1-4.739,1.752,1.752,0,0,1-2.388-5.75,2.056,2.056,0,0,1-1.564-7.4,3.218,3.218,0,0,1,.542-8.071a3.311,3.311,0,0,1,2.186.7A2.21,2.21,0,0,1,3.567-5.6H2.2a1.223,1.223,0,0,0-.472-.959,1.77,1.77,0,0,0-1.19-.4,1.852,1.852,0,0,0-1.157.322,1.014,1.014,0,0,0-.417.842.822.822,0,0,0,.388.74,4.776,4.776,0,0,0,1.4.476A7.308,7.308,0,0,1,2.4-4.036a2.4,2.4,0,0,1,.934.758,1.864,1.864,0,0,1,.3,1.08,2.028,2.028,0,0,1-.85,1.7,3.564,3.564,0,0,1-2.2.641A3.991,3.991,0,0,1-1.1-.19a2.74,2.74,0,0,1-1.146-.941,2.268,2.268,0,0,1-.414-1.307H-1.3a1.4,1.4,0,0,0,.546,1.08,2.117,2.117,0,0,0,1.344.4A2.185,2.185,0,0,0,1.82-1.271.956.956,0,0,0,2.285-2.1ZM7.617-3.669l-.85.886V0H5.413V-11.25H6.768v6.8l.725-.872L9.961-7.925h1.648L8.525-4.614,11.968,0H10.378Zm15.007-1.04H18.289L17.468,0H16.091l1.853-10.664H24.36l-.205,1.15H19.116l-.63,3.655H22.83ZM25.437,0H24.119L25.5-7.925h1.318Zm1.091-10.818a.725.725,0,0,1,.56.2.754.754,0,0,1,.223.568.8.8,0,0,1-.223.564.8.8,0,0,1-.56.234.73.73,0,0,1-.564-.2A.717.717,0,0,1,25.752-10a.831.831,0,0,1,.22-.571A.775.775,0,0,1,26.528-10.818ZM29.041,0H27.722L29.67-11.25H31Zm5.6.146A2.857,2.857,0,0,1,32.322-.945a3.756,3.756,0,0,1-.7-2.717l.037-.315a5.273,5.273,0,0,1,.7-2.153,4.068,4.068,0,0,1,1.4-1.469,3.273,3.273,0,0,1,1.787-.472,2.52,2.52,0,0,1,1.919.813,3.343,3.343,0,0,1,.762,2.124,6.207,6.207,0,0,1-.029.952l-.081.608H32.937a2.677,2.677,0,0,0,.355,1.831,1.683,1.683,0,0,0,1.454.784,2.819,2.819,0,0,0,2.168-1.055l.762.645A3.486,3.486,0,0,1,36.39-.245,3.643,3.643,0,0,1,34.636.146Zm.842-7.112a1.937,1.937,0,0,0-1.432.557,3.956,3.956,0,0,0-.97,1.721l3.853.007.029-.117a2.168,2.168,0,0,0-.3-1.534A1.4,1.4,0,0,0,35.479-6.965ZM-30.04,18.291h-4.336L-35.2,23h-1.377l1.853-10.664H-28.3l-.205,1.15h-5.039l-.63,3.655h4.343Zm5.625-3.362a2.856,2.856,0,0,1,1.707.542,3.08,3.08,0,0,1,1.051,1.454,4.5,4.5,0,0,1,.231,2.025l-.015.161A5.33,5.33,0,0,1-22.13,21.2a4.04,4.04,0,0,1-1.421,1.454,3.465,3.465,0,0,1-1.912.491,2.861,2.861,0,0,1-1.7-.542,3.01,3.01,0,0,1-1.044-1.436,4.623,4.623,0,0,1-.234-2,5.4,5.4,0,0,1,.667-2.212,4.134,4.134,0,0,1,1.432-1.52A3.424,3.424,0,0,1-24.415,14.929Zm-2.7,4.248a4.5,4.5,0,0,0,0,.959,2.35,2.35,0,0,0,.516,1.377,1.55,1.55,0,0,0,1.183.535,2.112,2.112,0,0,0,1.216-.326,2.736,2.736,0,0,0,.938-1.051,4.426,4.426,0,0,0,.491-1.56,7.026,7.026,0,0,0,.022-1.135,2.439,2.439,0,0,0-.535-1.4,1.585,1.585,0,0,0-1.187-.542,2.16,2.16,0,0,0-1.743.806,3.98,3.98,0,0,0-.886,2.168Zm11.594-2.893-.623-.066a2.268,2.268,0,0,0-2.007,1.15L-19.12,23h-1.326l1.377-7.925,1.282-.007-.2.923A2.369,2.369,0,0,1-16,14.914a2.432,2.432,0,0,1,.63.11Zm2.681-1.216-.168.886a3.1,3.1,0,0,1,2.41-1.025,2.445,2.445,0,0,1,1.278.344,1.688,1.688,0,0,1,.721.93,3.272,3.272,0,0,1,2.629-1.274,2.1,2.1,0,0,1,1.75.8A2.852,2.852,0,0,1-3.8,17.792L-4.669,23H-5.988l.864-5.222a2.759,2.759,0,0,0,0-.7q-.139-1-1.3-1.018a2,2,0,0,0-1.315.45A2.083,2.083,0,0,0-8.5,17.734L-9.4,23h-1.333l.879-5.215a1.674,1.674,0,0,0-.245-1.252,1.291,1.291,0,0,0-1.058-.454,2.17,2.17,0,0,0-1.97,1.128l-1,5.793h-1.326l1.377-7.925ZM2.223,23a1.775,1.775,0,0,1-.051-.417l.022-.417a3.249,3.249,0,0,1-2.314.981,2.368,2.368,0,0,1-1.7-.663,2.006,2.006,0,0,1-.6-1.622,2.44,2.44,0,0,1,1.1-1.967,4.693,4.693,0,0,1,2.706-.707l1.384.007.088-.63a1.448,1.448,0,0,0-.275-1.124,1.326,1.326,0,0,0-1.044-.428,2.044,2.044,0,0,0-1.2.333,1.418,1.418,0,0,0-.641.919l-1.333.007a2.125,2.125,0,0,1,.542-1.234A3.153,3.153,0,0,1,.128,15.2a3.951,3.951,0,0,1,1.545-.282,2.627,2.627,0,0,1,1.926.751,2.328,2.328,0,0,1,.579,1.915l-.645,3.926-.037.564a2.765,2.765,0,0,0,.088.8L3.571,23ZM.143,21.975a2.312,2.312,0,0,0,1.2-.3,3.051,3.051,0,0,0,.978-.883l.286-1.633-1-.007a3.8,3.8,0,0,0-1.919.4,1.457,1.457,0,0,0-.754,1.121,1.135,1.135,0,0,0,.26.927A1.238,1.238,0,0,0,.143,21.975Zm8.723-8.818-.337,1.919H9.972l-.183,1.047H8.353l-.828,4.929a1.719,1.719,0,0,0-.007.352.559.559,0,0,0,.623.571,3.8,3.8,0,0,0,.645-.073l-.1,1.106a3.606,3.606,0,0,1-.967.132,1.384,1.384,0,0,1-1.187-.582,2.252,2.252,0,0,1-.308-1.527l.806-4.907h-1.4l.183-1.047h1.4l.337-1.919ZM20.8,20.209H16.337l-1,2.791h-1.45l4.072-10.664h1.23L23.265,23H21.823Zm-4.043-1.15h3.625l-1.816-4.988Zm9.346-.234V23H24.7V12.336h3.933a3.952,3.952,0,0,1,2.743.894,3.029,3.029,0,0,1,.992,2.366,2.989,2.989,0,0,1-.97,2.391,4.128,4.128,0,0,1-2.78.839Zm0-1.15h2.527a2.526,2.526,0,0,0,1.729-.532,1.945,1.945,0,0,0,.6-1.537,2.009,2.009,0,0,0-.6-1.526,2.367,2.367,0,0,0-1.648-.594H26.107ZM35.673,23H34.266V12.336h1.406Z" transform="translate(1126 1653.986)" fill="#fff"/>
      <path id="Trazado_823673" data-name="Trazado 823673" d="M7.126-2.791H2.659L1.655,0H.205L4.277-10.664h1.23L9.587,0H8.145ZM3.083-3.94H6.709L4.893-8.928ZM15.425-2.1a1,1,0,0,0-.414-.853,3.983,3.983,0,0,0-1.443-.524,6.822,6.822,0,0,1-1.633-.527,2.324,2.324,0,0,1-.894-.732,1.752,1.752,0,0,1-.289-1.011A2.056,2.056,0,0,1,11.576-7.4a3.218,3.218,0,0,1,2.106-.674,3.311,3.311,0,0,1,2.186.7,2.21,2.21,0,0,1,.839,1.78H15.344a1.223,1.223,0,0,0-.472-.959,1.77,1.77,0,0,0-1.19-.4,1.852,1.852,0,0,0-1.157.322,1.014,1.014,0,0,0-.417.842.822.822,0,0,0,.388.74,4.776,4.776,0,0,0,1.4.476,7.308,7.308,0,0,1,1.644.542,2.4,2.4,0,0,1,.934.758,1.864,1.864,0,0,1,.3,1.08,2.028,2.028,0,0,1-.85,1.7,3.564,3.564,0,0,1-2.2.641A3.991,3.991,0,0,1,12.041-.19a2.74,2.74,0,0,1-1.146-.941,2.268,2.268,0,0,1-.414-1.307h1.355a1.4,1.4,0,0,0,.546,1.08,2.117,2.117,0,0,0,1.344.4,2.185,2.185,0,0,0,1.234-.311A.956.956,0,0,0,15.425-2.1Zm4.958-7.742v1.919h1.479v1.047H20.383v4.921a1.1,1.1,0,0,0,.2.715A.832.832,0,0,0,21.255-1a3.281,3.281,0,0,0,.645-.088V0a3.951,3.951,0,0,1-1.04.146A1.687,1.687,0,0,1,19.49-.4a2.36,2.36,0,0,1-.461-1.56V-6.877H17.585V-7.925h1.443V-9.844Zm6.35,9.99A3.463,3.463,0,0,1,24.111-.912,3.928,3.928,0,0,1,23.1-3.743v-.249a4.756,4.756,0,0,1,.45-2.106,3.514,3.514,0,0,1,1.26-1.45,3.167,3.167,0,0,1,1.754-.524,2.968,2.968,0,0,1,2.4,1.018,4.408,4.408,0,0,1,.857,2.915v.564H24.456a2.817,2.817,0,0,0,.685,1.893,2.153,2.153,0,0,0,1.666.721,2.36,2.36,0,0,0,1.216-.293,3.055,3.055,0,0,0,.872-.776l.828.645A3.328,3.328,0,0,1,26.733.146Zm-.168-7.1a1.807,1.807,0,0,0-1.377.6A2.9,2.9,0,0,0,24.5-4.687h3.97v-.1a2.581,2.581,0,0,0-.557-1.6A1.7,1.7,0,0,0,26.565-6.958Zm8.657.249a4.061,4.061,0,0,0-.667-.051,1.786,1.786,0,0,0-1.809,1.135V0H31.392V-7.925H32.71l.022.916a2.11,2.11,0,0,1,1.89-1.062,1.384,1.384,0,0,1,.6.1ZM37.939,0H36.584V-7.925h1.355ZM36.475-10.027a.809.809,0,0,1,.2-.557.756.756,0,0,1,.6-.227.768.768,0,0,1,.6.227.8.8,0,0,1,.205.557.774.774,0,0,1-.205.549.782.782,0,0,1-.6.22.77.77,0,0,1-.6-.22A.782.782,0,0,1,36.475-10.027ZM44.722-2.1a1,1,0,0,0-.414-.853,3.983,3.983,0,0,0-1.443-.524,6.822,6.822,0,0,1-1.633-.527,2.324,2.324,0,0,1-.894-.732,1.752,1.752,0,0,1-.289-1.011A2.056,2.056,0,0,1,40.873-7.4a3.218,3.218,0,0,1,2.106-.674,3.311,3.311,0,0,1,2.186.7A2.21,2.21,0,0,1,46-5.6H44.641a1.223,1.223,0,0,0-.472-.959,1.77,1.77,0,0,0-1.19-.4,1.852,1.852,0,0,0-1.157.322,1.014,1.014,0,0,0-.417.842.822.822,0,0,0,.388.74,4.776,4.776,0,0,0,1.4.476,7.308,7.308,0,0,1,1.644.542,2.4,2.4,0,0,1,.934.758,1.864,1.864,0,0,1,.3,1.08,2.028,2.028,0,0,1-.85,1.7,3.564,3.564,0,0,1-2.2.641A3.991,3.991,0,0,1,41.338-.19a2.74,2.74,0,0,1-1.146-.941,2.268,2.268,0,0,1-.414-1.307h1.355a1.4,1.4,0,0,0,.546,1.08,2.117,2.117,0,0,0,1.344.4,2.185,2.185,0,0,0,1.234-.311A.956.956,0,0,0,44.722-2.1Zm5.332-1.567-.85.886V0H47.849V-11.25H49.2v6.8l.725-.872L52.4-7.925h1.648L50.962-4.614,54.4,0H52.815Zm16.6.271a4.251,4.251,0,0,1-1.5,2.622,4.2,4.2,0,0,1-2.853.923,3.322,3.322,0,0,1-1.729-.487,3.077,3.077,0,0,1-1.15-1.34,5.006,5.006,0,0,1-.454-1.937,6.209,6.209,0,0,1,.051-1.172l.125-.879a6.633,6.633,0,0,1,1.688-3.79,4.26,4.26,0,0,1,3.27-1.351,3.19,3.19,0,0,1,2.38.97,3.86,3.86,0,0,1,.93,2.611H66.05q-.1-2.241-1.758-2.417l-.242-.015A2.83,2.83,0,0,0,61.74-8.632a5.571,5.571,0,0,0-1.2,2.911l-.161,1.106-.044.645a3.625,3.625,0,0,0,.48,2.142A1.809,1.809,0,0,0,62.373-1a2.742,2.742,0,0,0,1.842-.535,3.558,3.558,0,0,0,1.11-1.838Zm3.684-3.56a3.071,3.071,0,0,1,2.4-1.106,1.93,1.93,0,0,1,1.652.765,3.016,3.016,0,0,1,.4,2.106L73.923,0H72.6l.872-5.215a2.783,2.783,0,0,0,.007-.667,1.1,1.1,0,0,0-1.208-1.047,2.439,2.439,0,0,0-2.095,1.274L69.192,0H67.866l1.956-11.25h1.326ZM80.8,0a1.775,1.775,0,0,1-.051-.417l.022-.417a3.249,3.249,0,0,1-2.314.981,2.368,2.368,0,0,1-1.7-.663,2.006,2.006,0,0,1-.6-1.622,2.44,2.44,0,0,1,1.1-1.967,4.693,4.693,0,0,1,2.706-.707L81.35-4.8l.088-.63a1.448,1.448,0,0,0-.275-1.124,1.326,1.326,0,0,0-1.044-.428,2.044,2.044,0,0,0-1.2.333,1.418,1.418,0,0,0-.641.919l-1.333.007a2.125,2.125,0,0,1,.542-1.234A3.153,3.153,0,0,1,78.706-7.8a3.951,3.951,0,0,1,1.545-.282,2.627,2.627,0,0,1,1.926.751,2.328,2.328,0,0,1,.579,1.915l-.645,3.926-.037.564a2.765,2.765,0,0,0,.088.8L82.148,0Zm-2.08-1.025a2.312,2.312,0,0,0,1.2-.3,3.051,3.051,0,0,0,.978-.883l.286-1.633-1-.007a3.8,3.8,0,0,0-1.919.4,1.457,1.457,0,0,0-.754,1.121,1.135,1.135,0,0,0,.26.927A1.238,1.238,0,0,0,78.721-1.025Zm7.852-6.907-.19,1a3.124,3.124,0,0,1,2.432-1.143,1.966,1.966,0,0,1,1.655.776,3.016,3.016,0,0,1,.4,2.1L90,0H88.674l.872-5.209a2.777,2.777,0,0,0,.007-.666,1.1,1.1,0,0,0-1.208-1.046A2.5,2.5,0,0,0,86.25-5.648L85.269,0H83.943L85.32-7.925Zm8.1,0-.19,1a3.124,3.124,0,0,1,2.432-1.143,1.966,1.966,0,0,1,1.655.776,3.016,3.016,0,0,1,.4,2.1L98.1,0H96.775l.872-5.209a2.777,2.777,0,0,0,.007-.666,1.1,1.1,0,0,0-1.208-1.046,2.5,2.5,0,0,0-2.095,1.273L93.369,0H92.043L93.42-7.925Zm8.9,8.079a2.857,2.857,0,0,1-2.314-1.091,3.756,3.756,0,0,1-.7-2.717l.037-.315a5.273,5.273,0,0,1,.7-2.153,4.068,4.068,0,0,1,1.4-1.469,3.273,3.273,0,0,1,1.787-.472,2.52,2.52,0,0,1,1.919.813,3.343,3.343,0,0,1,.762,2.124,6.207,6.207,0,0,1-.029.952l-.081.608h-5.178a2.677,2.677,0,0,0,.355,1.831,1.683,1.683,0,0,0,1.454.784,2.819,2.819,0,0,0,2.168-1.055l.762.645a3.486,3.486,0,0,1-1.285,1.124A3.643,3.643,0,0,1,103.572.146Zm.842-7.112a1.937,1.937,0,0,0-1.432.557,3.956,3.956,0,0,0-.97,1.721l3.853.007.029-.117a2.168,2.168,0,0,0-.3-1.534A1.4,1.4,0,0,0,104.414-6.965ZM109.358,0H108.04l1.948-11.25h1.326Zm12.781-2.791h-4.468l-1,2.791h-1.45l4.072-10.664h1.23L124.6,0h-1.443ZM118.1-3.94h3.625L119.9-8.928Zm9.346-.234V0h-1.406V-10.664h3.933a3.952,3.952,0,0,1,2.743.894A3.029,3.029,0,0,1,133.7-7.4a2.989,2.989,0,0,1-.97,2.391,4.128,4.128,0,0,1-2.78.839Zm0-1.15h2.527a2.526,2.526,0,0,0,1.729-.532,1.945,1.945,0,0,0,.6-1.537,2.009,2.009,0,0,0-.6-1.526,2.367,2.367,0,0,0-1.648-.594h-2.607ZM137.007,0H135.6V-10.664h1.406Z" transform="translate(726 1907.986)" fill="#fff"/>
      <path id="Trazado_823674" data-name="Trazado 823674" d="M8.562-3.4a4.251,4.251,0,0,1-1.5,2.622A4.2,4.2,0,0,1,4.211.146,3.322,3.322,0,0,1,2.483-.341a3.077,3.077,0,0,1-1.15-1.34A5.006,5.006,0,0,1,.879-3.618,6.209,6.209,0,0,1,.93-4.79l.125-.879a6.633,6.633,0,0,1,1.688-3.79,4.26,4.26,0,0,1,3.27-1.351,3.19,3.19,0,0,1,2.38.97,3.86,3.86,0,0,1,.93,2.611H7.954Q7.859-9.47,6.2-9.646l-.242-.015A2.83,2.83,0,0,0,3.644-8.632a5.571,5.571,0,0,0-1.2,2.911L2.285-4.614l-.044.645a3.625,3.625,0,0,0,.48,2.142A1.809,1.809,0,0,0,4.277-1a2.742,2.742,0,0,0,1.842-.535,3.558,3.558,0,0,0,1.11-1.838Zm5.61-4.673a2.856,2.856,0,0,1,1.707.542A3.08,3.08,0,0,1,16.93-6.075a4.5,4.5,0,0,1,.231,2.025l-.015.161A5.33,5.33,0,0,1,16.458-1.8,4.04,4.04,0,0,1,15.037-.344a3.465,3.465,0,0,1-1.912.491,2.861,2.861,0,0,1-1.7-.542,3.01,3.01,0,0,1-1.044-1.436,4.623,4.623,0,0,1-.234-2,5.4,5.4,0,0,1,.667-2.212,4.134,4.134,0,0,1,1.432-1.52A3.424,3.424,0,0,1,14.172-8.071Zm-2.7,4.248a4.5,4.5,0,0,0,0,.959,2.35,2.35,0,0,0,.516,1.377,1.55,1.55,0,0,0,1.183.535,2.112,2.112,0,0,0,1.216-.326,2.736,2.736,0,0,0,.938-1.051,4.426,4.426,0,0,0,.491-1.56,7.026,7.026,0,0,0,.022-1.135,2.439,2.439,0,0,0-.535-1.4,1.585,1.585,0,0,0-1.187-.542,2.16,2.16,0,0,0-1.743.806,3.98,3.98,0,0,0-.886,2.168Zm7.046-.154a6.166,6.166,0,0,1,.667-2.183,3.779,3.779,0,0,1,1.282-1.458,2.931,2.931,0,0,1,1.677-.461,2.475,2.475,0,0,1,2.036.967l.762-4.138h1.326L24.324,0H23.115l.139-.85a2.921,2.921,0,0,1-2.314,1,2.189,2.189,0,0,1-1.75-.861,3.75,3.75,0,0,1-.7-2.23A7.123,7.123,0,0,1,18.523-3.977ZM19.8-3.22A2.746,2.746,0,0,0,20.171-1.6,1.347,1.347,0,0,0,21.328-1a2.4,2.4,0,0,0,2.043-1.156L24-5.817a1.644,1.644,0,0,0-1.6-1.112,2.009,2.009,0,0,0-1.381.472,3.052,3.052,0,0,0-.908,1.383A5.7,5.7,0,0,0,19.8-3.22ZM29.846.146A2.857,2.857,0,0,1,27.532-.945a3.756,3.756,0,0,1-.7-2.717l.037-.315a5.273,5.273,0,0,1,.7-2.153,4.068,4.068,0,0,1,1.4-1.469,3.273,3.273,0,0,1,1.787-.472,2.52,2.52,0,0,1,1.919.813,3.343,3.343,0,0,1,.762,2.124,6.207,6.207,0,0,1-.029.952l-.081.608H28.147A2.677,2.677,0,0,0,28.5-1.743a1.683,1.683,0,0,0,1.454.784,2.819,2.819,0,0,0,2.168-1.055l.762.645A3.486,3.486,0,0,1,31.6-.245,3.643,3.643,0,0,1,29.846.146Zm.842-7.112a1.937,1.937,0,0,0-1.432.557,3.956,3.956,0,0,0-.97,1.721l3.853.007.029-.117a2.168,2.168,0,0,0-.3-1.534A1.4,1.4,0,0,0,30.688-6.965ZM37.544-.952a2.011,2.011,0,0,0,1.282-.414,1.968,1.968,0,0,0,.747-1.124L40.825-2.5a2.826,2.826,0,0,1-.6,1.362A3.331,3.331,0,0,1,39-.176a3.329,3.329,0,0,1-1.516.322A2.828,2.828,0,0,1,35.812-.37a2.891,2.891,0,0,1-1.007-1.4,4.661,4.661,0,0,1-.22-2.018l.037-.366A5.255,5.255,0,0,1,35.288-6.2a3.853,3.853,0,0,1,1.377-1.4,3.42,3.42,0,0,1,1.875-.472,2.678,2.678,0,0,1,1.992.835,2.888,2.888,0,0,1,.747,2.043L40.042-5.2a1.9,1.9,0,0,0-.432-1.256,1.507,1.507,0,0,0-1.128-.509,2.113,2.113,0,0,0-1.718.769,4.028,4.028,0,0,0-.853,2.212l-.022.19a6.352,6.352,0,0,0-.015.967,2.208,2.208,0,0,0,.483,1.355A1.553,1.553,0,0,0,37.544-.952ZM54.28-9.514H50.962L49.314,0h-1.37l1.648-9.514H46.274l.205-1.15h8.005Zm4.124,2.8-.623-.066a2.268,2.268,0,0,0-2.007,1.15L54.8,0H53.474l1.377-7.925,1.282-.007-.2.923A2.369,2.369,0,0,1,57.92-8.086a2.432,2.432,0,0,1,.63.11ZM63.025,0a1.775,1.775,0,0,1-.051-.417L63-.835a3.249,3.249,0,0,1-2.314.981,2.368,2.368,0,0,1-1.7-.663,2.006,2.006,0,0,1-.6-1.622,2.44,2.44,0,0,1,1.1-1.967,4.693,4.693,0,0,1,2.706-.707l1.384.007.088-.63a1.448,1.448,0,0,0-.275-1.124,1.326,1.326,0,0,0-1.044-.428,2.044,2.044,0,0,0-1.2.333,1.418,1.418,0,0,0-.641.919l-1.333.007a2.125,2.125,0,0,1,.542-1.234A3.153,3.153,0,0,1,60.93-7.8a3.951,3.951,0,0,1,1.545-.282,2.627,2.627,0,0,1,1.926.751,2.328,2.328,0,0,1,.579,1.915l-.645,3.926L64.3-.923a2.765,2.765,0,0,0,.088.8L64.373,0Zm-2.08-1.025a2.312,2.312,0,0,0,1.2-.3,3.051,3.051,0,0,0,.978-.883l.286-1.633-1-.007a3.8,3.8,0,0,0-1.919.4,1.457,1.457,0,0,0-.754,1.121A1.135,1.135,0,0,0,60-1.41,1.238,1.238,0,0,0,60.945-1.025ZM68.8-7.932l-.19,1a3.124,3.124,0,0,1,2.432-1.143,1.966,1.966,0,0,1,1.655.776,3.016,3.016,0,0,1,.4,2.1L72.224,0H70.9l.872-5.209a2.777,2.777,0,0,0,.007-.666,1.1,1.1,0,0,0-1.208-1.046,2.5,2.5,0,0,0-2.095,1.273L67.493,0H66.167l1.377-7.925ZM79.175-2.146q.11-.82-.9-1.157l-1.377-.4q-1.743-.6-1.685-1.992a2.195,2.195,0,0,1,.956-1.718A3.4,3.4,0,0,1,78.3-8.071a2.838,2.838,0,0,1,1.952.7,2.216,2.216,0,0,1,.721,1.783L79.651-5.6a1.237,1.237,0,0,0-.374-.967,1.478,1.478,0,0,0-1.033-.388,1.93,1.93,0,0,0-1.187.337,1.233,1.233,0,0,0-.535.864q-.1.688.842,1l.667.183a4.291,4.291,0,0,1,1.934.916,1.748,1.748,0,0,1,.527,1.4A2.222,2.222,0,0,1,80.01-.959a2.764,2.764,0,0,1-1.172.839,3.919,3.919,0,0,1-1.56.267A3.092,3.092,0,0,1,75.2-.59a2.275,2.275,0,0,1-.791-1.857l1.326.007a1.4,1.4,0,0,0,.425,1.069,1.624,1.624,0,0,0,1.165.4,2.284,2.284,0,0,0,1.252-.3A1.169,1.169,0,0,0,79.175-2.146ZM83.276,0H81.958l1.948-11.25h1.326Zm7.017,0a1.775,1.775,0,0,1-.051-.417l.022-.417a3.249,3.249,0,0,1-2.314.981,2.368,2.368,0,0,1-1.7-.663,2.006,2.006,0,0,1-.6-1.622,2.44,2.44,0,0,1,1.1-1.967,4.693,4.693,0,0,1,2.706-.707l1.384.007.088-.63a1.448,1.448,0,0,0-.275-1.124,1.326,1.326,0,0,0-1.044-.428,2.044,2.044,0,0,0-1.2.333,1.418,1.418,0,0,0-.641.919l-1.333.007a2.125,2.125,0,0,1,.542-1.234A3.153,3.153,0,0,1,88.2-7.8a3.951,3.951,0,0,1,1.545-.282,2.627,2.627,0,0,1,1.926.751,2.328,2.328,0,0,1,.579,1.915L91.6-1.487l-.037.564a2.765,2.765,0,0,0,.088.8L91.641,0Zm-2.08-1.025a2.312,2.312,0,0,0,1.2-.3,3.051,3.051,0,0,0,.978-.883l.286-1.633-1-.007a3.8,3.8,0,0,0-1.919.4A1.457,1.457,0,0,0,87-2.336a1.135,1.135,0,0,0,.26.927A1.238,1.238,0,0,0,88.213-1.025Zm8.723-8.818L96.6-7.925h1.443l-.183,1.047H96.423L95.6-1.948a1.719,1.719,0,0,0-.007.352.559.559,0,0,0,.623.571,3.8,3.8,0,0,0,.645-.073l-.1,1.106a3.606,3.606,0,0,1-.967.132A1.384,1.384,0,0,1,94.6-.443a2.252,2.252,0,0,1-.308-1.527L95.1-6.877H93.7l.183-1.047h1.4l.337-1.919Zm5.581,1.772a2.856,2.856,0,0,1,1.707.542,3.08,3.08,0,0,1,1.051,1.454,4.5,4.5,0,0,1,.231,2.025l-.015.161A5.33,5.33,0,0,1,104.8-1.8a4.04,4.04,0,0,1-1.421,1.454,3.465,3.465,0,0,1-1.912.491,2.861,2.861,0,0,1-1.7-.542,3.01,3.01,0,0,1-1.044-1.436,4.623,4.623,0,0,1-.234-2,5.4,5.4,0,0,1,.667-2.212,4.134,4.134,0,0,1,1.432-1.52A3.424,3.424,0,0,1,102.517-8.071Zm-2.7,4.248a4.5,4.5,0,0,0,0,.959,2.35,2.35,0,0,0,.516,1.377,1.55,1.55,0,0,0,1.183.535,2.112,2.112,0,0,0,1.216-.326,2.736,2.736,0,0,0,.938-1.051,4.426,4.426,0,0,0,.491-1.56,7.026,7.026,0,0,0,.022-1.135,2.439,2.439,0,0,0-.535-1.4,1.585,1.585,0,0,0-1.187-.542,2.16,2.16,0,0,0-1.743.806,3.98,3.98,0,0,0-.886,2.168Zm11.594-2.893-.623-.066a2.268,2.268,0,0,0-2.007,1.15L107.813,0h-1.326l1.377-7.925,1.282-.007-.2.923a2.369,2.369,0,0,1,1.985-1.077,2.432,2.432,0,0,1,.63.11Z" transform="translate(587 1665.986)" fill="#12263f"/>
      <path id="Trazado_823675" data-name="Trazado 823675" d="M0,0H157V43H0Z" transform="translate(654 1779.986)" fill="#ccbcfd"/>
      <path id="Trazado_823676" data-name="Trazado 823676" d="M0,0H162V43H0Z" transform="translate(652 1706.986)" fill="#1e5af9"/>
      <path id="Trazado_823677" data-name="Trazado 823677" d="M-45.249-4.175V0h-1.406V-10.664h3.933a3.952,3.952,0,0,1,2.743.894A3.029,3.029,0,0,1-38.987-7.4a2.989,2.989,0,0,1-.97,2.391,4.128,4.128,0,0,1-2.78.839Zm0-1.15h2.527a2.526,2.526,0,0,0,1.729-.532,1.945,1.945,0,0,0,.6-1.537,2.009,2.009,0,0,0-.6-1.526,2.367,2.367,0,0,0-1.648-.594h-2.607ZM-37.192,0V-10.664h3.486a4.047,4.047,0,0,1,2.611.718,2.587,2.587,0,0,1,.875,2.124A2.166,2.166,0,0,1-30.645-6.5a2.754,2.754,0,0,1-1.157.89,2.473,2.473,0,0,1,1.366.919,2.638,2.638,0,0,1,.5,1.615,2.852,2.852,0,0,1-.93,2.256A3.847,3.847,0,0,1-33.494,0Zm1.406-4.988V-1.15h2.322a2.236,2.236,0,0,0,1.549-.509,1.788,1.788,0,0,0,.568-1.4q0-1.926-2.095-1.926Zm0-1.128h2.124a2.226,2.226,0,0,0,1.476-.462,1.55,1.55,0,0,0,.553-1.255,1.524,1.524,0,0,0-.513-1.281,2.518,2.518,0,0,0-1.56-.4h-2.08Zm11.411-.461,2.556-4.087h1.655l-3.369,5.288L-20.083,0h-1.67l-2.622-4.16L-27.012,0h-1.663l3.457-5.376-3.376-5.288h1.648ZM-9.551-2.747q.161-1.172-1.216-1.714l-1.267-.461-.425-.183q-2.139-.974-2-2.739a2.865,2.865,0,0,1,.608-1.567,3.459,3.459,0,0,1,1.417-1.051,4.546,4.546,0,0,1,1.879-.348,3.75,3.75,0,0,1,1.725.432A2.777,2.777,0,0,1-7.676-9.232a3.125,3.125,0,0,1,.352,1.659l-1.384-.007a1.91,1.91,0,0,0-.439-1.525,1.968,1.968,0,0,0-1.465-.555,2.728,2.728,0,0,0-1.677.47,1.833,1.833,0,0,0-.776,1.321q-.146,1.093,1.34,1.658l1.091.389.549.234A2.757,2.757,0,0,1-8.174-2.761,2.824,2.824,0,0,1-8.782-1.2,3.4,3.4,0,0,1-10.214-.19a4.937,4.937,0,0,1-1.945.337,4.068,4.068,0,0,1-1.835-.428,2.993,2.993,0,0,1-1.263-1.154A2.885,2.885,0,0,1-15.637-3.1l1.377.007a1.814,1.814,0,0,0,.516,1.512A2.324,2.324,0,0,0-12.1-1a2.936,2.936,0,0,0,1.75-.461A1.8,1.8,0,0,0-9.551-2.747Zm9.624.872L2.6-7.925H3.97L.359,0H-.718l-.82-5.991L-4.395,0H-5.471l-.857-7.925h1.267l.483,5.9,2.813-5.9H-.7ZM5.405,0H4.087L5.464-7.925H6.782ZM6.5-10.818a.725.725,0,0,1,.56.2.754.754,0,0,1,.223.568.8.8,0,0,1-.223.564.8.8,0,0,1-.56.234.73.73,0,0,1-.564-.2A.717.717,0,0,1,5.72-10a.831.831,0,0,1,.22-.571A.775.775,0,0,1,6.5-10.818Zm4.578.974-.337,1.919H12.18L12-6.877H10.562L9.734-1.948a1.719,1.719,0,0,0-.007.352.559.559,0,0,0,.623.571,3.8,3.8,0,0,0,.645-.073l-.1,1.106a3.606,3.606,0,0,1-.967.132A1.384,1.384,0,0,1,8.738-.443,2.252,2.252,0,0,1,8.43-1.97l.806-4.907h-1.4L8.02-7.925h1.4l.337-1.919ZM15.747-.952a2.011,2.011,0,0,0,1.282-.414,1.968,1.968,0,0,0,.747-1.124L19.028-2.5a2.826,2.826,0,0,1-.6,1.362A3.331,3.331,0,0,1,17.2-.176a3.329,3.329,0,0,1-1.516.322A2.828,2.828,0,0,1,14.015-.37a2.891,2.891,0,0,1-1.007-1.4,4.661,4.661,0,0,1-.22-2.018l.037-.366A5.255,5.255,0,0,1,13.491-6.2a3.853,3.853,0,0,1,1.377-1.4,3.42,3.42,0,0,1,1.875-.472,2.678,2.678,0,0,1,1.992.835,2.888,2.888,0,0,1,.747,2.043L18.245-5.2a1.9,1.9,0,0,0-.432-1.256,1.507,1.507,0,0,0-1.128-.509,2.113,2.113,0,0,0-1.718.769,4.028,4.028,0,0,0-.853,2.212l-.022.19a6.352,6.352,0,0,0-.015.967,2.208,2.208,0,0,0,.483,1.355A1.553,1.553,0,0,0,15.747-.952Zm6.819-6.006a3.071,3.071,0,0,1,2.4-1.106,1.93,1.93,0,0,1,1.652.765,3.016,3.016,0,0,1,.4,2.106L26.147,0H24.822l.872-5.215a2.783,2.783,0,0,0,.007-.667,1.1,1.1,0,0,0-1.208-1.047A2.439,2.439,0,0,0,22.4-5.654L21.416,0H20.09l1.956-11.25h1.326ZM29.612,0H28.293L29.67-7.925h1.318ZM30.7-10.818a.725.725,0,0,1,.56.2.754.754,0,0,1,.223.568.8.8,0,0,1-.223.564.8.8,0,0,1-.56.234.73.73,0,0,1-.564-.2A.717.717,0,0,1,29.927-10a.831.831,0,0,1,.22-.571A.775.775,0,0,1,30.7-10.818Zm3.706,2.886-.19,1A3.124,3.124,0,0,1,36.65-8.071a1.966,1.966,0,0,1,1.655.776,3.016,3.016,0,0,1,.4,2.1L37.837,0H36.511l.872-5.209a2.777,2.777,0,0,0,.007-.666,1.1,1.1,0,0,0-1.208-1.046,2.5,2.5,0,0,0-2.095,1.273L33.105,0H31.78l1.377-7.925Zm5.859,3.955a6.459,6.459,0,0,1,.7-2.252,3.658,3.658,0,0,1,1.274-1.414,2.954,2.954,0,0,1,1.644-.436,2.438,2.438,0,0,1,2.08,1.04l.264-.886h1.216L46.128-.168A3.856,3.856,0,0,1,44.9,2.26a3.466,3.466,0,0,1-2.512.868,3.567,3.567,0,0,1-1.542-.381,2.931,2.931,0,0,1-1.161-1L40.437.93a2.268,2.268,0,0,0,1.9,1.091,2.273,2.273,0,0,0,1.6-.527A2.721,2.721,0,0,0,44.8-.088l.146-.7a3,3,0,0,1-2.263.938,2.33,2.33,0,0,1-1.285-.4,2.427,2.427,0,0,1-.846-1.091,4.461,4.461,0,0,1-.33-1.593A8.187,8.187,0,0,1,40.269-3.977Zm1.282.75a2.788,2.788,0,0,0,.363,1.62,1.37,1.37,0,0,0,1.161.6,2.4,2.4,0,0,0,2.043-1.163L45.74-5.8A1.665,1.665,0,0,0,44.15-6.929a2.056,2.056,0,0,0-1.769.878A4.573,4.573,0,0,0,41.565-3.6Z" transform="translate(733 1806.986)" fill="#12263f"/>
      <path id="Trazado_823678" data-name="Trazado 823678" d="M-62.417-2.791h-4.321L-68.2,0h-1.472l5.793-10.664h1.208L-60.557,0h-1.355ZM-66.13-3.94h3.508l-.886-4.973Zm14.026.015a6.287,6.287,0,0,1-.652,2.175A3.7,3.7,0,0,1-54.009-.3a2.867,2.867,0,0,1-1.655.458,2.639,2.639,0,0,1-2.109-.93l-.71,3.823H-59.81l1.9-10.972,1.2-.007-.146.886A3.006,3.006,0,0,1-54.5-8.071a2.211,2.211,0,0,1,1.78.842,3.707,3.707,0,0,1,.674,2.241,7.887,7.887,0,0,1-.037.908Zm-1.3-.15.037-.614a2.783,2.783,0,0,0-.406-1.635,1.429,1.429,0,0,0-1.176-.6,2.351,2.351,0,0,0-1.985,1.09l-.667,3.8A1.658,1.658,0,0,0-56-.952a2.085,2.085,0,0,0,1.681-.772A4.479,4.479,0,0,0-53.408-4.076Zm9.543.15a6.287,6.287,0,0,1-.652,2.175A3.7,3.7,0,0,1-45.769-.3a2.867,2.867,0,0,1-1.655.458,2.639,2.639,0,0,1-2.109-.93l-.71,3.823H-51.57l1.9-10.972,1.2-.007-.146.886A3.006,3.006,0,0,1-46.26-8.071a2.211,2.211,0,0,1,1.78.842,3.707,3.707,0,0,1,.674,2.241,7.887,7.887,0,0,1-.037.908Zm-1.3-.15.037-.614a2.783,2.783,0,0,0-.406-1.635,1.429,1.429,0,0,0-1.176-.6A2.351,2.351,0,0,0-48.7-5.831l-.667,3.8a1.658,1.658,0,0,0,1.6,1.083,2.085,2.085,0,0,0,1.681-.772A4.479,4.479,0,0,0-45.168-4.076ZM-41.367,0h-1.318l1.948-11.25h1.326Zm3.6,0h-1.318l1.377-7.925h1.318Zm1.091-10.818a.725.725,0,0,1,.56.2.754.754,0,0,1,.223.568.8.8,0,0,1-.223.564.8.8,0,0,1-.56.234.73.73,0,0,1-.564-.2A.717.717,0,0,1-37.449-10a.831.831,0,0,1,.22-.571A.775.775,0,0,1-36.672-10.818Zm4.424,9.866a2.011,2.011,0,0,0,1.282-.414A1.968,1.968,0,0,0-30.22-2.49l1.252-.007a2.826,2.826,0,0,1-.6,1.362,3.331,3.331,0,0,1-1.227.959,3.329,3.329,0,0,1-1.516.322A2.828,2.828,0,0,1-33.981-.37a2.891,2.891,0,0,1-1.007-1.4,4.661,4.661,0,0,1-.22-2.018l.037-.366A5.255,5.255,0,0,1-34.5-6.2a3.853,3.853,0,0,1,1.377-1.4,3.42,3.42,0,0,1,1.875-.472,2.678,2.678,0,0,1,1.992.835,2.888,2.888,0,0,1,.747,2.043L-29.751-5.2a1.9,1.9,0,0,0-.432-1.256,1.507,1.507,0,0,0-1.128-.509,2.113,2.113,0,0,0-1.718.769,4.028,4.028,0,0,0-.853,2.212l-.022.19a6.352,6.352,0,0,0-.015.967,2.208,2.208,0,0,0,.483,1.355A1.553,1.553,0,0,0-32.249-.952ZM-23.057,0a1.775,1.775,0,0,1-.051-.417l.022-.417A3.249,3.249,0,0,1-25.4.146a2.368,2.368,0,0,1-1.7-.663,2.006,2.006,0,0,1-.6-1.622,2.44,2.44,0,0,1,1.1-1.967,4.693,4.693,0,0,1,2.706-.707l1.384.007.088-.63a1.448,1.448,0,0,0-.275-1.124,1.326,1.326,0,0,0-1.044-.428,2.044,2.044,0,0,0-1.2.333,1.418,1.418,0,0,0-.641.919l-1.333.007a2.125,2.125,0,0,1,.542-1.234A3.153,3.153,0,0,1-25.151-7.8a3.951,3.951,0,0,1,1.545-.282,2.627,2.627,0,0,1,1.926.751A2.328,2.328,0,0,1-21.1-5.413l-.645,3.926-.037.564a2.765,2.765,0,0,0,.088.8L-21.709,0Zm-2.08-1.025a2.312,2.312,0,0,0,1.2-.3,3.051,3.051,0,0,0,.978-.883l.286-1.633-1-.007a3.8,3.8,0,0,0-1.919.4,1.457,1.457,0,0,0-.754,1.121,1.135,1.135,0,0,0,.26.927A1.238,1.238,0,0,0-25.137-1.025Zm8.723-8.818-.337,1.919h1.443l-.183,1.047h-1.436l-.828,4.929a1.719,1.719,0,0,0-.007.352.559.559,0,0,0,.623.571,3.8,3.8,0,0,0,.645-.073L-16.6.007a3.606,3.606,0,0,1-.967.132A1.384,1.384,0,0,1-18.75-.443a2.252,2.252,0,0,1-.308-1.527l.806-4.907h-1.4l.183-1.047h1.4l.337-1.919ZM-13.652,0h-1.318l1.377-7.925h1.318Zm1.091-10.818a.725.725,0,0,1,.56.2.754.754,0,0,1,.223.568A.8.8,0,0,1-12-9.485a.8.8,0,0,1-.56.234.73.73,0,0,1-.564-.2A.717.717,0,0,1-13.337-10a.831.831,0,0,1,.22-.571A.775.775,0,0,1-12.561-10.818Zm5.479,2.747a2.856,2.856,0,0,1,1.707.542A3.08,3.08,0,0,1-4.325-6.075,4.5,4.5,0,0,1-4.094-4.05l-.015.161A5.33,5.33,0,0,1-4.8-1.8,4.04,4.04,0,0,1-6.218-.344,3.465,3.465,0,0,1-8.13.146,2.861,2.861,0,0,1-9.833-.4a3.01,3.01,0,0,1-1.044-1.436,4.623,4.623,0,0,1-.234-2,5.4,5.4,0,0,1,.667-2.212,4.134,4.134,0,0,1,1.432-1.52A3.424,3.424,0,0,1-7.083-8.071Zm-2.7,4.248a4.5,4.5,0,0,0,0,.959,2.35,2.35,0,0,0,.516,1.377,1.55,1.55,0,0,0,1.183.535,2.112,2.112,0,0,0,1.216-.326,2.736,2.736,0,0,0,.938-1.051,4.426,4.426,0,0,0,.491-1.56,7.026,7.026,0,0,0,.022-1.135,2.439,2.439,0,0,0-.535-1.4,1.585,1.585,0,0,0-1.187-.542,2.16,2.16,0,0,0-1.743.806,3.98,3.98,0,0,0-.886,2.168ZM-.483-7.932l-.19,1A3.124,3.124,0,0,1,1.758-8.071a1.966,1.966,0,0,1,1.655.776,3.016,3.016,0,0,1,.4,2.1L2.944,0H1.619L2.49-5.209A2.777,2.777,0,0,0,2.5-5.875,1.1,1.1,0,0,0,1.289-6.921,2.5,2.5,0,0,0-.806-5.648L-1.787,0H-3.113l1.377-7.925ZM10.452-1.15h4.907L15.154,0H8.87l1.853-10.664h1.384ZM21.416,0a1.775,1.775,0,0,1-.051-.417l.022-.417a3.249,3.249,0,0,1-2.314.981,2.368,2.368,0,0,1-1.7-.663,2.006,2.006,0,0,1-.6-1.622,2.44,2.44,0,0,1,1.1-1.967,4.693,4.693,0,0,1,2.706-.707l1.384.007.088-.63a1.448,1.448,0,0,0-.275-1.124,1.326,1.326,0,0,0-1.044-.428,2.044,2.044,0,0,0-1.2.333,1.418,1.418,0,0,0-.641.919l-1.333.007A2.125,2.125,0,0,1,18.1-6.962,3.153,3.153,0,0,1,19.321-7.8a3.951,3.951,0,0,1,1.545-.282,2.627,2.627,0,0,1,1.926.751,2.328,2.328,0,0,1,.579,1.915l-.645,3.926-.037.564a2.765,2.765,0,0,0,.088.8L22.764,0Zm-2.08-1.025a2.312,2.312,0,0,0,1.2-.3,3.051,3.051,0,0,0,.978-.883L21.8-3.845l-1-.007a3.8,3.8,0,0,0-1.919.4,1.457,1.457,0,0,0-.754,1.121,1.135,1.135,0,0,0,.26.927A1.238,1.238,0,0,0,19.336-1.025ZM29.59-.784a3.061,3.061,0,0,1-2.366.93,1.975,1.975,0,0,1-1.681-.813,3.109,3.109,0,0,1-.406-2.139l.85-5.12h1.326l-.857,5.142a3.415,3.415,0,0,0-.015.63,1.311,1.311,0,0,0,.315.828A1.075,1.075,0,0,0,27.532-1a2.378,2.378,0,0,0,2.2-1.15l1-5.771h1.326L30.674,0H29.421Zm5.691-7.148-.19,1a3.124,3.124,0,0,1,2.432-1.143,1.966,1.966,0,0,1,1.655.776,3.016,3.016,0,0,1,.4,2.1L38.708,0H37.383l.872-5.209a2.777,2.777,0,0,0,.007-.666,1.1,1.1,0,0,0-1.208-1.046,2.5,2.5,0,0,0-2.095,1.273L33.977,0H32.651l1.377-7.925ZM44.1-.952a2.011,2.011,0,0,0,1.282-.414,1.968,1.968,0,0,0,.747-1.124L47.38-2.5a2.826,2.826,0,0,1-.6,1.362,3.331,3.331,0,0,1-1.227.959,3.329,3.329,0,0,1-1.516.322A2.828,2.828,0,0,1,42.367-.37a2.891,2.891,0,0,1-1.007-1.4,4.661,4.661,0,0,1-.22-2.018l.037-.366A5.255,5.255,0,0,1,41.843-6.2,3.853,3.853,0,0,1,43.22-7.6,3.42,3.42,0,0,1,45.1-8.071a2.678,2.678,0,0,1,1.992.835,2.888,2.888,0,0,1,.747,2.043L46.6-5.2a1.9,1.9,0,0,0-.432-1.256,1.507,1.507,0,0,0-1.128-.509,2.113,2.113,0,0,0-1.718.769,4.028,4.028,0,0,0-.853,2.212l-.022.19a6.352,6.352,0,0,0-.015.967,2.208,2.208,0,0,0,.483,1.355A1.553,1.553,0,0,0,44.1-.952Zm6.819-6.006a3.071,3.071,0,0,1,2.4-1.106,1.93,1.93,0,0,1,1.652.765,3.016,3.016,0,0,1,.4,2.106L54.5,0H53.174l.872-5.215a2.783,2.783,0,0,0,.007-.667,1.1,1.1,0,0,0-1.208-1.047A2.439,2.439,0,0,0,50.75-5.654L49.768,0H48.442L50.4-11.25h1.326Zm9.038,7.1A2.857,2.857,0,0,1,57.642-.945a3.756,3.756,0,0,1-.7-2.717l.037-.315a5.273,5.273,0,0,1,.7-2.153,4.068,4.068,0,0,1,1.4-1.469,3.273,3.273,0,0,1,1.787-.472,2.52,2.52,0,0,1,1.919.813,3.343,3.343,0,0,1,.762,2.124,6.207,6.207,0,0,1-.029.952l-.081.608H58.257a2.677,2.677,0,0,0,.355,1.831,1.683,1.683,0,0,0,1.454.784,2.819,2.819,0,0,0,2.168-1.055L63-1.37A3.486,3.486,0,0,1,61.71-.245,3.643,3.643,0,0,1,59.956.146ZM60.8-6.965a1.937,1.937,0,0,0-1.432.557,3.956,3.956,0,0,0-.97,1.721l3.853.007.029-.117a2.168,2.168,0,0,0-.3-1.534A1.4,1.4,0,0,0,60.8-6.965Zm8.438.249-.623-.066a2.268,2.268,0,0,0-2.007,1.15L65.632,0H64.307l1.377-7.925,1.282-.007-.2.923a2.369,2.369,0,0,1,1.985-1.077,2.432,2.432,0,0,1,.63.11Z" transform="translate(732 1732.986)" fill="#fff"/>
      <path id="Trazado_823679" data-name="Trazado 823679" d="M0,0H204V43H0Z" transform="translate(826 1706.986)" fill="#21c3fc"/>
      <path id="Trazado_823680" data-name="Trazado 823680" d="M0,0H190V39H0Z" transform="translate(919 1779.986)" fill="#ccbcfd"/>
      <path id="Trazado_823681" data-name="Trazado 823681" d="M.432,0,2.285-10.664l2.769.007A3.844,3.844,0,0,1,7.3-10a3.6,3.6,0,0,1,1.351,1.8A5.589,5.589,0,0,1,8.892-5.64L8.818-5.1A6.03,6.03,0,0,1,7.009-1.388,5.261,5.261,0,0,1,3.274,0ZM3.457-9.514,2.007-1.157l1.355.007a3.808,3.808,0,0,0,2.633-.967A4.589,4.589,0,0,0,7.4-4.768a8.626,8.626,0,0,0,.176-2.292,2.792,2.792,0,0,0-.754-1.776,2.443,2.443,0,0,0-1.729-.67ZM12.686-2l2.82-5.925H16.97l-4.7,9.243a2.846,2.846,0,0,1-2.52,1.9,4.317,4.317,0,0,1-.8-.132l.117-1.1.344.037A1.737,1.737,0,0,0,10.5,1.747,2.6,2.6,0,0,0,11.309.74l.476-.908-1.37-7.756H11.8Zm6.746-5.933-.19,1a3.124,3.124,0,0,1,2.432-1.143,1.966,1.966,0,0,1,1.655.776,3.016,3.016,0,0,1,.4,2.1L22.859,0H21.533L22.4-5.209a2.777,2.777,0,0,0,.007-.666A1.1,1.1,0,0,0,21.2-6.921a2.5,2.5,0,0,0-2.095,1.273L18.127,0H16.8l1.377-7.925ZM29.751,0A1.775,1.775,0,0,1,29.7-.417l.022-.417a3.249,3.249,0,0,1-2.314.981,2.368,2.368,0,0,1-1.7-.663,2.006,2.006,0,0,1-.6-1.622,2.44,2.44,0,0,1,1.1-1.967,4.693,4.693,0,0,1,2.706-.707L30.3-4.8l.088-.63a1.448,1.448,0,0,0-.275-1.124,1.326,1.326,0,0,0-1.044-.428,2.044,2.044,0,0,0-1.2.333,1.418,1.418,0,0,0-.641.919l-1.333.007a2.125,2.125,0,0,1,.542-1.234A3.153,3.153,0,0,1,27.656-7.8,3.951,3.951,0,0,1,29.2-8.079a2.627,2.627,0,0,1,1.926.751,2.328,2.328,0,0,1,.579,1.915l-.645,3.926-.037.564a2.765,2.765,0,0,0,.088.8L31.1,0Zm-2.08-1.025a2.312,2.312,0,0,0,1.2-.3,3.051,3.051,0,0,0,.978-.883l.286-1.633-1-.007a3.8,3.8,0,0,0-1.919.4,1.457,1.457,0,0,0-.754,1.121,1.135,1.135,0,0,0,.26.927A1.238,1.238,0,0,0,27.671-1.025Zm7.837-6.907-.168.886a3.1,3.1,0,0,1,2.41-1.025,2.445,2.445,0,0,1,1.278.344,1.688,1.688,0,0,1,.721.93,3.272,3.272,0,0,1,2.629-1.274,2.1,2.1,0,0,1,1.75.8,2.852,2.852,0,0,1,.417,2.065L43.674,0H42.356l.864-5.222a2.759,2.759,0,0,0,0-.7q-.139-1-1.3-1.018a2,2,0,0,0-1.315.45,2.083,2.083,0,0,0-.758,1.219L38.943,0H37.61l.879-5.215a1.674,1.674,0,0,0-.245-1.252,1.291,1.291,0,0,0-1.058-.454,2.17,2.17,0,0,0-1.97,1.128L34.211,0H32.886l1.377-7.925ZM47.153,0H45.835l1.377-7.925H48.53Zm1.091-10.818a.725.725,0,0,1,.56.2.754.754,0,0,1,.223.568.8.8,0,0,1-.223.564.8.8,0,0,1-.56.234.73.73,0,0,1-.564-.2A.717.717,0,0,1,47.468-10a.831.831,0,0,1,.22-.571A.775.775,0,0,1,48.245-10.818ZM52.668-.952a2.011,2.011,0,0,0,1.282-.414A1.968,1.968,0,0,0,54.7-2.49L55.95-2.5a2.826,2.826,0,0,1-.6,1.362,3.331,3.331,0,0,1-1.227.959A3.329,3.329,0,0,1,52.61.146,2.828,2.828,0,0,1,50.936-.37a2.891,2.891,0,0,1-1.007-1.4,4.661,4.661,0,0,1-.22-2.018l.037-.366A5.255,5.255,0,0,1,50.413-6.2,3.853,3.853,0,0,1,51.79-7.6a3.42,3.42,0,0,1,1.875-.472,2.678,2.678,0,0,1,1.992.835A2.888,2.888,0,0,1,56.4-5.193L55.166-5.2a1.9,1.9,0,0,0-.432-1.256,1.507,1.507,0,0,0-1.128-.509,2.113,2.113,0,0,0-1.718.769,4.028,4.028,0,0,0-.853,2.212l-.022.19A6.352,6.352,0,0,0,51-2.827a2.208,2.208,0,0,0,.483,1.355A1.553,1.553,0,0,0,52.668-.952Zm11.851-9.712,1.868,8.687,4.893-8.687h1.809L71.235,0h-1.37L70.6-4.219l.872-4.292L66.636,0H65.581l-1.9-8.679-.659,4.6L62.307,0H60.93l1.853-10.664ZM77.9-8.071a2.856,2.856,0,0,1,1.707.542,3.08,3.08,0,0,1,1.051,1.454,4.5,4.5,0,0,1,.231,2.025l-.015.161A5.33,5.33,0,0,1,80.186-1.8,4.04,4.04,0,0,1,78.765-.344a3.465,3.465,0,0,1-1.912.491A2.861,2.861,0,0,1,75.15-.4a3.01,3.01,0,0,1-1.044-1.436,4.623,4.623,0,0,1-.234-2,5.4,5.4,0,0,1,.667-2.212,4.134,4.134,0,0,1,1.432-1.52A3.424,3.424,0,0,1,77.9-8.071Zm-2.7,4.248a4.5,4.5,0,0,0,0,.959,2.35,2.35,0,0,0,.516,1.377A1.55,1.55,0,0,0,76.9-.952a2.112,2.112,0,0,0,1.216-.326,2.736,2.736,0,0,0,.938-1.051,4.426,4.426,0,0,0,.491-1.56,7.026,7.026,0,0,0,.022-1.135,2.439,2.439,0,0,0-.535-1.4,1.585,1.585,0,0,0-1.187-.542,2.16,2.16,0,0,0-1.743.806,3.98,3.98,0,0,0-.886,2.168Zm7.046-.154a6.166,6.166,0,0,1,.667-2.183A3.779,3.779,0,0,1,84.2-7.617a2.931,2.931,0,0,1,1.677-.461,2.475,2.475,0,0,1,2.036.967l.762-4.138H90L88.052,0H86.843l.139-.85a2.921,2.921,0,0,1-2.314,1,2.189,2.189,0,0,1-1.75-.861,3.75,3.75,0,0,1-.7-2.23A7.123,7.123,0,0,1,82.251-3.977Zm1.274.757A2.746,2.746,0,0,0,83.9-1.6,1.347,1.347,0,0,0,85.056-1,2.4,2.4,0,0,0,87.1-2.159l.63-3.658a1.644,1.644,0,0,0-1.6-1.112,2.009,2.009,0,0,0-1.381.472,3.052,3.052,0,0,0-.908,1.383A5.7,5.7,0,0,0,83.525-3.22ZM95.178-.784a3.061,3.061,0,0,1-2.366.93,1.975,1.975,0,0,1-1.681-.813,3.109,3.109,0,0,1-.406-2.139l.85-5.12H92.9l-.857,5.142a3.415,3.415,0,0,0-.015.63,1.311,1.311,0,0,0,.315.828A1.075,1.075,0,0,0,93.12-1a2.378,2.378,0,0,0,2.2-1.15l1-5.771h1.326L96.262,0H95.01Zm4.5.784H98.357l1.948-11.25h1.326Zm5.6.146a2.857,2.857,0,0,1-2.314-1.091,3.756,3.756,0,0,1-.7-2.717l.037-.315a5.273,5.273,0,0,1,.7-2.153,4.068,4.068,0,0,1,1.4-1.469,3.273,3.273,0,0,1,1.787-.472,2.52,2.52,0,0,1,1.919.813,3.343,3.343,0,0,1,.762,2.124,6.207,6.207,0,0,1-.029.952l-.081.608h-5.178a2.677,2.677,0,0,0,.355,1.831,1.683,1.683,0,0,0,1.454.784,2.819,2.819,0,0,0,2.168-1.055l.762.645a3.486,3.486,0,0,1-1.285,1.124A3.643,3.643,0,0,1,105.271.146Zm.842-7.112a1.937,1.937,0,0,0-1.432.557,3.956,3.956,0,0,0-.97,1.721l3.853.007.029-.117a2.168,2.168,0,0,0-.3-1.534A1.4,1.4,0,0,0,106.113-6.965Zm8.972,5.815h4.907L119.788,0H113.5l1.853-10.664h1.384ZM125.6-8.071a2.856,2.856,0,0,1,1.707.542,3.08,3.08,0,0,1,1.051,1.454,4.5,4.5,0,0,1,.231,2.025l-.015.161a5.33,5.33,0,0,1-.688,2.091,4.04,4.04,0,0,1-1.421,1.454,3.465,3.465,0,0,1-1.912.491,2.861,2.861,0,0,1-1.7-.542,3.01,3.01,0,0,1-1.044-1.436,4.623,4.623,0,0,1-.234-2,5.4,5.4,0,0,1,.667-2.212,4.134,4.134,0,0,1,1.432-1.52A3.424,3.424,0,0,1,125.6-8.071Zm-2.7,4.248a4.5,4.5,0,0,0,0,.959,2.35,2.35,0,0,0,.516,1.377,1.55,1.55,0,0,0,1.183.535,2.112,2.112,0,0,0,1.216-.326,2.736,2.736,0,0,0,.938-1.051,4.426,4.426,0,0,0,.491-1.56,7.026,7.026,0,0,0,.022-1.135,2.439,2.439,0,0,0-.535-1.4,1.585,1.585,0,0,0-1.187-.542,2.16,2.16,0,0,0-1.743.806,3.98,3.98,0,0,0-.886,2.168ZM134.421,0a1.775,1.775,0,0,1-.051-.417l.022-.417a3.249,3.249,0,0,1-2.314.981,2.368,2.368,0,0,1-1.7-.663,2.006,2.006,0,0,1-.6-1.622,2.44,2.44,0,0,1,1.1-1.967,4.693,4.693,0,0,1,2.706-.707l1.384.007.088-.63a1.448,1.448,0,0,0-.275-1.124,1.326,1.326,0,0,0-1.044-.428,2.044,2.044,0,0,0-1.2.333,1.418,1.418,0,0,0-.641.919l-1.333.007a2.125,2.125,0,0,1,.542-1.234,3.153,3.153,0,0,1,1.223-.835,3.951,3.951,0,0,1,1.545-.282,2.627,2.627,0,0,1,1.926.751,2.328,2.328,0,0,1,.579,1.915l-.645,3.926-.037.564a2.765,2.765,0,0,0,.088.8L135.769,0Zm-2.08-1.025a2.312,2.312,0,0,0,1.2-.3,3.051,3.051,0,0,0,.978-.883l.286-1.633-1-.007a3.8,3.8,0,0,0-1.919.4,1.457,1.457,0,0,0-.754,1.121,1.135,1.135,0,0,0,.26.927A1.238,1.238,0,0,0,132.341-1.025Zm5.6-2.952a6.166,6.166,0,0,1,.667-2.183,3.779,3.779,0,0,1,1.282-1.458,2.931,2.931,0,0,1,1.677-.461,2.475,2.475,0,0,1,2.036.967l.762-4.138h1.326L143.745,0h-1.208l.139-.85a2.921,2.921,0,0,1-2.314,1,2.189,2.189,0,0,1-1.75-.861,3.75,3.75,0,0,1-.7-2.23A7.123,7.123,0,0,1,137.944-3.977Zm1.274.757a2.746,2.746,0,0,0,.374,1.624A1.347,1.347,0,0,0,140.75-1a2.4,2.4,0,0,0,2.043-1.156l.63-3.658a1.644,1.644,0,0,0-1.6-1.112,2.009,2.009,0,0,0-1.381.472,3.052,3.052,0,0,0-.908,1.383A5.7,5.7,0,0,0,139.219-3.22ZM149.268.146a2.857,2.857,0,0,1-2.314-1.091,3.756,3.756,0,0,1-.7-2.717l.037-.315a5.273,5.273,0,0,1,.7-2.153,4.068,4.068,0,0,1,1.4-1.469,3.273,3.273,0,0,1,1.787-.472,2.52,2.52,0,0,1,1.919.813,3.343,3.343,0,0,1,.762,2.124,6.207,6.207,0,0,1-.029.952l-.081.608h-5.178a2.677,2.677,0,0,0,.355,1.831,1.683,1.683,0,0,0,1.454.784,2.819,2.819,0,0,0,2.168-1.055l.762.645a3.486,3.486,0,0,1-1.285,1.124A3.643,3.643,0,0,1,149.268.146Zm.842-7.112a1.937,1.937,0,0,0-1.432.557,3.956,3.956,0,0,0-.97,1.721l3.853.007.029-.117a2.168,2.168,0,0,0-.3-1.534A1.4,1.4,0,0,0,150.11-6.965Zm8.438.249-.623-.066a2.268,2.268,0,0,0-2.007,1.15L154.944,0h-1.326L155-7.925l1.282-.007-.2.923a2.369,2.369,0,0,1,1.985-1.077,2.432,2.432,0,0,1,.63.11Z" transform="translate(930 1804.986)" fill="#12263f"/>
      <path id="Trazado_823682" data-name="Trazado 823682" d="M-81.606-2.747q.161-1.172-1.216-1.714l-1.267-.461-.425-.183q-2.139-.974-2-2.739a2.865,2.865,0,0,1,.608-1.567,3.459,3.459,0,0,1,1.417-1.051,4.546,4.546,0,0,1,1.879-.348,3.75,3.75,0,0,1,1.725.432,2.777,2.777,0,0,1,1.154,1.146,3.125,3.125,0,0,1,.352,1.659l-1.384-.007A1.91,1.91,0,0,0-81.2-9.106a1.968,1.968,0,0,0-1.465-.555,2.728,2.728,0,0,0-1.677.47,1.833,1.833,0,0,0-.776,1.321q-.146,1.093,1.34,1.658l1.091.389.549.234a2.757,2.757,0,0,1,1.912,2.827A2.824,2.824,0,0,1-80.837-1.2,3.4,3.4,0,0,1-82.269-.19a4.937,4.937,0,0,1-1.945.337,4.068,4.068,0,0,1-1.835-.428,2.993,2.993,0,0,1-1.263-1.154A2.885,2.885,0,0,1-87.693-3.1l1.377.007A1.814,1.814,0,0,0-85.8-1.578,2.324,2.324,0,0,0-84.155-1a2.936,2.936,0,0,0,1.75-.461A1.8,1.8,0,0,0-81.606-2.747Zm5.859,1.794a2.011,2.011,0,0,0,1.282-.414,1.968,1.968,0,0,0,.747-1.124l1.252-.007a2.826,2.826,0,0,1-.6,1.362,3.331,3.331,0,0,1-1.227.959,3.329,3.329,0,0,1-1.516.322A2.828,2.828,0,0,1-77.479-.37a2.891,2.891,0,0,1-1.007-1.4,4.661,4.661,0,0,1-.22-2.018l.037-.366A5.255,5.255,0,0,1-78-6.2a3.853,3.853,0,0,1,1.377-1.4,3.42,3.42,0,0,1,1.875-.472,2.678,2.678,0,0,1,1.992.835,2.888,2.888,0,0,1,.747,2.043L-73.25-5.2a1.9,1.9,0,0,0-.432-1.256,1.507,1.507,0,0,0-1.128-.509,2.113,2.113,0,0,0-1.718.769,4.028,4.028,0,0,0-.853,2.212l-.022.19a6.352,6.352,0,0,0-.015.967,2.208,2.208,0,0,0,.483,1.355A1.553,1.553,0,0,0-75.747-.952Zm6.819-6.006a3.071,3.071,0,0,1,2.4-1.106,1.93,1.93,0,0,1,1.652.765,3.016,3.016,0,0,1,.4,2.106L-65.347,0h-1.326l.872-5.215a2.783,2.783,0,0,0,.007-.667A1.1,1.1,0,0,0-67-6.929,2.439,2.439,0,0,0-69.1-5.654L-70.078,0H-71.4l1.956-11.25h1.326Zm9.038,7.1A2.857,2.857,0,0,1-62.2-.945a3.756,3.756,0,0,1-.7-2.717l.037-.315a5.273,5.273,0,0,1,.7-2.153,4.068,4.068,0,0,1,1.4-1.469,3.273,3.273,0,0,1,1.787-.472,2.52,2.52,0,0,1,1.919.813A3.343,3.343,0,0,1-56.3-5.134a6.207,6.207,0,0,1-.029.952l-.081.608h-5.178a2.677,2.677,0,0,0,.355,1.831,1.683,1.683,0,0,0,1.454.784,2.819,2.819,0,0,0,2.168-1.055l.762.645A3.486,3.486,0,0,1-58.136-.245,3.643,3.643,0,0,1-59.89.146Zm.842-7.112a1.937,1.937,0,0,0-1.432.557,3.956,3.956,0,0,0-.97,1.721l3.853.007.029-.117a2.168,2.168,0,0,0-.3-1.534A1.4,1.4,0,0,0-59.048-6.965Zm3.889,2.988a6.166,6.166,0,0,1,.667-2.183A3.779,3.779,0,0,1-53.21-7.617a2.931,2.931,0,0,1,1.677-.461,2.475,2.475,0,0,1,2.036.967l.762-4.138h1.326L-49.358,0h-1.208l.139-.85a2.921,2.921,0,0,1-2.314,1,2.189,2.189,0,0,1-1.75-.861,3.75,3.75,0,0,1-.7-2.23A7.123,7.123,0,0,1-55.159-3.977Zm1.274.757A2.746,2.746,0,0,0-53.511-1.6,1.347,1.347,0,0,0-52.354-1,2.4,2.4,0,0,0-50.31-2.159l.63-3.658a1.644,1.644,0,0,0-1.6-1.112,2.009,2.009,0,0,0-1.381.472,3.052,3.052,0,0,0-.908,1.383A5.7,5.7,0,0,0-53.884-3.22ZM-42.231-.784A3.061,3.061,0,0,1-44.6.146a1.975,1.975,0,0,1-1.681-.813,3.109,3.109,0,0,1-.406-2.139l.85-5.12h1.326l-.857,5.142a3.415,3.415,0,0,0-.015.63,1.311,1.311,0,0,0,.315.828A1.075,1.075,0,0,0-44.29-1a2.378,2.378,0,0,0,2.2-1.15l1-5.771h1.326L-41.147,0H-42.4Zm4.5.784h-1.318L-37.1-11.25h1.326Zm5.6.146A2.857,2.857,0,0,1-34.453-.945a3.756,3.756,0,0,1-.7-2.717l.037-.315a5.273,5.273,0,0,1,.7-2.153,4.068,4.068,0,0,1,1.4-1.469,3.273,3.273,0,0,1,1.787-.472,2.52,2.52,0,0,1,1.919.813,3.343,3.343,0,0,1,.762,2.124,6.207,6.207,0,0,1-.029.952l-.081.608h-5.178a2.677,2.677,0,0,0,.355,1.831,1.683,1.683,0,0,0,1.454.784,2.819,2.819,0,0,0,2.168-1.055l.762.645A3.486,3.486,0,0,1-30.385-.245,3.643,3.643,0,0,1-32.139.146Zm.842-7.112a1.937,1.937,0,0,0-1.432.557,3.956,3.956,0,0,0-.97,1.721l3.853.007.029-.117a2.168,2.168,0,0,0-.3-1.534A1.4,1.4,0,0,0-31.3-6.965Zm8.438.249-.623-.066a2.268,2.268,0,0,0-2.007,1.15L-26.462,0h-1.326l1.377-7.925,1.282-.007-.2.923a2.369,2.369,0,0,1,1.985-1.077,2.432,2.432,0,0,1,.63.11ZM-14.268,0a1.775,1.775,0,0,1-.051-.417l.022-.417a3.249,3.249,0,0,1-2.314.981,2.368,2.368,0,0,1-1.7-.663,2.006,2.006,0,0,1-.6-1.622,2.44,2.44,0,0,1,1.1-1.967A4.693,4.693,0,0,1-15.1-4.812l1.384.007.088-.63a1.448,1.448,0,0,0-.275-1.124,1.326,1.326,0,0,0-1.044-.428,2.044,2.044,0,0,0-1.2.333,1.418,1.418,0,0,0-.641.919l-1.333.007a2.125,2.125,0,0,1,.542-1.234A3.153,3.153,0,0,1-16.362-7.8a3.951,3.951,0,0,1,1.545-.282,2.627,2.627,0,0,1,1.926.751,2.328,2.328,0,0,1,.579,1.915l-.645,3.926-.037.564a2.765,2.765,0,0,0,.088.8L-12.92,0Zm-2.08-1.025a2.312,2.312,0,0,0,1.2-.3,3.051,3.051,0,0,0,.978-.883l.286-1.633-1-.007a3.8,3.8,0,0,0-1.919.4,1.457,1.457,0,0,0-.754,1.121,1.135,1.135,0,0,0,.26.927A1.238,1.238,0,0,0-16.348-1.025ZM-8.5-7.932l-.19,1A3.124,3.124,0,0,1-6.255-8.071,1.966,1.966,0,0,1-4.6-7.295a3.016,3.016,0,0,1,.4,2.1L-5.068,0H-6.394l.872-5.209a2.777,2.777,0,0,0,.007-.666A1.1,1.1,0,0,0-6.724-6.921,2.5,2.5,0,0,0-8.818-5.648L-9.8,0h-1.326l1.377-7.925Zm5.852,3.955A6.166,6.166,0,0,1-1.978-6.16,3.779,3.779,0,0,1-.7-7.617,2.931,2.931,0,0,1,.981-8.079a2.475,2.475,0,0,1,2.036.967l.762-4.138H5.1L3.157,0H1.948l.139-.85a2.921,2.921,0,0,1-2.314,1,2.189,2.189,0,0,1-1.75-.861,3.75,3.75,0,0,1-.7-2.23A7.123,7.123,0,0,1-2.644-3.977Zm1.274.757A2.746,2.746,0,0,0-1-1.6,1.347,1.347,0,0,0,.161-1,2.4,2.4,0,0,0,2.2-2.159l.63-3.658a1.644,1.644,0,0,0-1.6-1.112,2.009,2.009,0,0,0-1.381.472,3.052,3.052,0,0,0-.908,1.383A5.7,5.7,0,0,0-1.37-3.22ZM10.605,0H9.236l1.853-10.664h1.37Zm6.467.146A3.414,3.414,0,0,1,15.3-.344a3.179,3.179,0,0,1-1.183-1.381,5.2,5.2,0,0,1-.476-2.047,9.723,9.723,0,0,1,.2-2.19,7.51,7.51,0,0,1,.835-2.351A5.3,5.3,0,0,1,16.121-9.99a4.153,4.153,0,0,1,2.622-.82A3.155,3.155,0,0,1,21.2-9.73a4.492,4.492,0,0,1,.967,2.845,10.477,10.477,0,0,1-.157,1.956,8.1,8.1,0,0,1-.667,2.2,5.5,5.5,0,0,1-1.219,1.707A4.194,4.194,0,0,1,17.073.146Zm3.743-6.694a3.7,3.7,0,0,0-.505-2.238,1.924,1.924,0,0,0-1.633-.824,2.778,2.778,0,0,0-1.754.527,3.992,3.992,0,0,0-1.267,1.666,8.585,8.585,0,0,0-.626,2.809l-.022.476a3.727,3.727,0,0,0,.513,2.249,1.908,1.908,0,0,0,1.619.842,2.821,2.821,0,0,0,2.3-1,5.678,5.678,0,0,0,1.212-2.911A13.118,13.118,0,0,0,20.815-6.548Zm9.69-4.116,1.868,8.687,4.893-8.687h1.809L37.222,0h-1.37l.732-4.219.872-4.292L32.622,0H31.567l-1.9-8.679L29-4.08,28.293,0H26.917L28.77-10.664ZM44.333,0a1.775,1.775,0,0,1-.051-.417L44.3-.835A3.249,3.249,0,0,1,41.99.146a2.368,2.368,0,0,1-1.7-.663,2.006,2.006,0,0,1-.6-1.622,2.44,2.44,0,0,1,1.1-1.967A4.693,4.693,0,0,1,43.5-4.812l1.384.007.088-.63A1.448,1.448,0,0,0,44.7-6.559a1.326,1.326,0,0,0-1.044-.428,2.044,2.044,0,0,0-1.2.333,1.418,1.418,0,0,0-.641.919l-1.333.007a2.125,2.125,0,0,1,.542-1.234A3.153,3.153,0,0,1,42.239-7.8a3.951,3.951,0,0,1,1.545-.282,2.627,2.627,0,0,1,1.926.751,2.328,2.328,0,0,1,.579,1.915l-.645,3.926-.037.564a2.765,2.765,0,0,0,.088.8L45.681,0Zm-2.08-1.025a2.312,2.312,0,0,0,1.2-.3,3.051,3.051,0,0,0,.978-.883l.286-1.633-1-.007a3.8,3.8,0,0,0-1.919.4,1.457,1.457,0,0,0-.754,1.121,1.135,1.135,0,0,0,.26.927A1.238,1.238,0,0,0,42.253-1.025ZM50.1-7.932l-.19,1a3.124,3.124,0,0,1,2.432-1.143A1.966,1.966,0,0,1,54-7.295a3.016,3.016,0,0,1,.4,2.1L53.533,0H52.207l.872-5.209a2.777,2.777,0,0,0,.007-.666,1.1,1.1,0,0,0-1.208-1.046,2.5,2.5,0,0,0-2.095,1.273L48.8,0H47.476l1.377-7.925ZM60.425,0a1.775,1.775,0,0,1-.051-.417L60.4-.835a3.249,3.249,0,0,1-2.314.981,2.368,2.368,0,0,1-1.7-.663,2.006,2.006,0,0,1-.6-1.622,2.44,2.44,0,0,1,1.1-1.967,4.693,4.693,0,0,1,2.706-.707l1.384.007.088-.63a1.448,1.448,0,0,0-.275-1.124,1.326,1.326,0,0,0-1.044-.428,2.044,2.044,0,0,0-1.2.333,1.418,1.418,0,0,0-.641.919l-1.333.007a2.125,2.125,0,0,1,.542-1.234A3.153,3.153,0,0,1,58.33-7.8a3.951,3.951,0,0,1,1.545-.282,2.627,2.627,0,0,1,1.926.751,2.328,2.328,0,0,1,.579,1.915l-.645,3.926L61.7-.923a2.765,2.765,0,0,0,.088.8L61.772,0Zm-2.08-1.025a2.312,2.312,0,0,0,1.2-.3,3.051,3.051,0,0,0,.978-.883l.286-1.633-1-.007a3.8,3.8,0,0,0-1.919.4,1.457,1.457,0,0,0-.754,1.121,1.135,1.135,0,0,0,.26.927A1.238,1.238,0,0,0,58.345-1.025Zm5.61-2.952a6.459,6.459,0,0,1,.7-2.252,3.658,3.658,0,0,1,1.274-1.414,2.954,2.954,0,0,1,1.644-.436,2.438,2.438,0,0,1,2.08,1.04l.264-.886h1.216L69.814-.168a3.856,3.856,0,0,1-1.23,2.428,3.466,3.466,0,0,1-2.512.868,3.567,3.567,0,0,1-1.542-.381,2.931,2.931,0,0,1-1.161-1L64.124.93a2.268,2.268,0,0,0,1.9,1.091,2.273,2.273,0,0,0,1.6-.527,2.721,2.721,0,0,0,.868-1.582l.146-.7a3,3,0,0,1-2.263.938,2.33,2.33,0,0,1-1.285-.4,2.427,2.427,0,0,1-.846-1.091,4.461,4.461,0,0,1-.33-1.593A8.187,8.187,0,0,1,63.955-3.977Zm1.282.75a2.788,2.788,0,0,0,.363,1.62A1.37,1.37,0,0,0,66.76-1,2.4,2.4,0,0,0,68.8-2.166L69.426-5.8a1.665,1.665,0,0,0-1.589-1.127,2.056,2.056,0,0,0-1.769.878A4.573,4.573,0,0,0,65.251-3.6Zm10,3.374A2.857,2.857,0,0,1,72.92-.945a3.756,3.756,0,0,1-.7-2.717l.037-.315a5.273,5.273,0,0,1,.7-2.153,4.068,4.068,0,0,1,1.4-1.469,3.273,3.273,0,0,1,1.787-.472,2.52,2.52,0,0,1,1.919.813,3.343,3.343,0,0,1,.762,2.124,6.207,6.207,0,0,1-.029.952l-.081.608H73.535a2.677,2.677,0,0,0,.355,1.831,1.683,1.683,0,0,0,1.454.784,2.819,2.819,0,0,0,2.168-1.055l.762.645A3.486,3.486,0,0,1,76.989-.245,3.643,3.643,0,0,1,75.234.146Zm.842-7.112a1.937,1.937,0,0,0-1.432.557,3.956,3.956,0,0,0-.97,1.721l3.853.007.029-.117a2.168,2.168,0,0,0-.3-1.534A1.4,1.4,0,0,0,76.077-6.965Zm8.438.249-.623-.066a2.268,2.268,0,0,0-2.007,1.15L80.911,0H79.585l1.377-7.925,1.282-.007-.2.923a2.369,2.369,0,0,1,1.985-1.077,2.432,2.432,0,0,1,.63.11Z" transform="translate(927 1732.986)" fill="#12263f"/>
    </g>
  </g>
</svg>
