<svg id="Grupo_1072871" data-name="Grupo 1072871" xmlns="http://www.w3.org/2000/svg" xmlns:xlink="http://www.w3.org/1999/xlink" width="100.672" height="101.891" viewBox="0 0 100.672 101.891">
  <defs>
    <clipPath id="clip-path">
      <rect id="Rectángulo_381982" data-name="Rectángulo 381982" width="50.231" height="50.231" rx="10.523" fill="#ccbcfd"/>
    </clipPath>
    <clipPath id="clip-path-2">
      <rect id="Rectángulo_381983" data-name="Rectángulo 381983" width="100.672" height="99.147" fill="none"/>
    </clipPath>
  </defs>
  <g id="Grupo_1072872" data-name="Grupo 1072872">
    <g id="Grupo_1072865" data-name="Grupo 1072865">
      <g id="Grupo_1072873" data-name="Grupo 1072873">
        <path id="Trazado_819291" data-name="Trazado 819291" d="M79.582,99.146H21.09A20.932,20.932,0,0,1,0,78.376V20.77A20.932,20.932,0,0,1,21.09,0H79.582a20.932,20.932,0,0,1,21.09,20.77V78.376a20.932,20.932,0,0,1-21.09,20.77" fill="#e9e2fe"/>
        <path id="Trazado_819292" data-name="Trazado 819292" d="M81.688,94.723H17.65a16.3,16.3,0,0,1-16.405-16.2V15.3a16.023,16.023,0,0,1,4.2-10.821A16.064,16.064,0,0,0,0,16.532V79.755a16.3,16.3,0,0,0,16.405,16.2H80.443a16.455,16.455,0,0,0,12.205-5.376,16.465,16.465,0,0,1-10.961,4.148" transform="translate(0 3.196)" fill="#fff0e9"/>
        <path id="Trazado_819294" data-name="Trazado 819294" d="M23.872,76.825a8.972,8.972,0,0,0,.889.778,8.833,8.833,0,0,0,5.383,1.82H55.065c2.078,0,3.118.157,4.629-1.041.27-.213,1.4-1.314,1.642-1.557a8.943,8.943,0,0,0,.923-1.084,8.832,8.832,0,0,0,1.674-5.188V45.633a8.856,8.856,0,0,0-2.6-6.271,8.992,8.992,0,0,0-.77-.686,8.832,8.832,0,0,0-5.5-1.912H30.144a8.833,8.833,0,0,0-5.383,1.82,8.972,8.972,0,0,0-.889.778,8.86,8.86,0,0,0-2.6,6.271v24.92a8.832,8.832,0,0,0,1.675,5.188,8.943,8.943,0,0,0,.923,1.084" transform="translate(4.263 2.52)" fill="#6e40fb"/>
        <path id="Trazado_819295" data-name="Trazado 819295" d="M69.373,33.741H62.8V27.573a9.67,9.67,0,1,0-19.34,0v6.168H36.894V27.573a16.24,16.24,0,0,1,32.479,0Z" transform="translate(-1.392)" fill="#ccbcfd"/>
        <path id="Trazado_819296" data-name="Trazado 819296" d="M37.368,33.741l-.109-6.9a16.132,16.132,0,0,1,1.533-6.878,16.134,16.134,0,0,0-1.9,7.608v6.168Z" transform="translate(-0.973 -0.936)" fill="#6e40fb"/>
        <path id="Trazado_819297" data-name="Trazado 819297" d="M63.331,33.741l-.163-6.9a9.668,9.668,0,0,0-18.492-3.952A9.668,9.668,0,0,1,62.8,27.573v6.168Z" transform="translate(-1.411 -0.831)" fill="#6e40fb"/>
      </g>
    </g>
    <g id="Grupo_1072867" data-name="Grupo 1072867" transform="translate(26.607 29.671)">
      <g id="Grupo_1072866" data-name="Grupo 1072866" clip-path="url(#clip-path)">
        <rect id="Rectángulo_381981" data-name="Rectángulo 381981" width="65.032" height="65.032" transform="translate(-16.982 43.62) rotate(-68.728)" fill="#ab92f5"/>
      </g>
    </g>
    <g id="Grupo_1072869" data-name="Grupo 1072869" transform="translate(0 0)">
      <g id="Grupo_1072868" data-name="Grupo 1072868" clip-path="url(#clip-path-2)">
        <path id="Trazado_819298" data-name="Trazado 819298" d="M67.172,79.77H39.928A10.762,10.762,0,0,1,29.085,69.09V42.259a10.606,10.606,0,0,1,4.3-8.518,10.644,10.644,0,0,0-5.37,9.219V69.79A10.763,10.763,0,0,0,38.861,80.47H66.105a10.9,10.9,0,0,0,6.539-2.161,10.91,10.91,0,0,1-5.473,1.461" transform="translate(-0.725 -1.371)" fill="#6e40fb"/>
        <path id="Trazado_819299" data-name="Trazado 819299" d="M59.746,52.2A6.658,6.658,0,0,0,46.47,51.58,6.473,6.473,0,0,0,48.464,56.9v7.164a4.63,4.63,0,0,0,9.258,0V56.9a6.48,6.48,0,0,0,2.023-4.7" transform="translate(-1.202 -1.855)" fill="#fffaf8"/>
        <path id="Trazado_819300" data-name="Trazado 819300" d="M52.91,45.66A6.6,6.6,0,0,1,59.2,52.2a6.48,6.48,0,0,1-2.023,4.7v7.164A4.585,4.585,0,0,1,52.9,68.606c.118.009.236.018.356.018a4.6,4.6,0,0,0,4.629-4.56V56.9a6.48,6.48,0,0,0,2.023-4.7,6.608,6.608,0,0,0-7-6.542" transform="translate(-1.369 -1.855)" fill="#6e40fb"/>
      </g>
    </g>
  </g>
</svg>
