<svg xmlns="http://www.w3.org/2000/svg" width="295" height="110.93" viewBox="0 0 295 110.93">
  <g id="Grupo_1073387" data-name="Grupo 1073387" transform="translate(-180 -899.144)">
    <g id="Grupo_1073375" data-name="Grupo 1073375" transform="translate(-210 -2222)">
      <rect id="Rectángulo_381829" data-name="Rectángulo 381829" width="295" height="60" rx="7" transform="translate(390 3141)" fill="#1e5af9"/>
    </g>
    <g id="Grupo_1067370" data-name="Grupo 1067370" transform="translate(90 483)">
      <g id="Grupo_1063897" data-name="Grupo 1063897" transform="translate(0 -17)">
        <rect id="Rectángulo_373435" data-name="Rectángulo 373435" width="85" height="85" rx="5" transform="translate(180 446)" fill="#ccbcfd"/>
      </g>
      <g id="Grupo_1078304" data-name="Grupo 1078304" transform="translate(202.053 416.445)">
        <path id="Unión_2" data-name="Unión 2" d="M2321.2,11081.317h-30.254v-86.738h136.36v86.738h-86.5l-9.326,11.107Z" transform="translate(-2290.749 -10982.553)" fill="#fff" stroke="#6e40fb" stroke-miterlimit="10" stroke-width="1"/>
        <rect id="Rectángulo_386332" data-name="Rectángulo 386332" width="22.559" height="85.739" transform="translate(1.198 12.025)" fill="#ebebeb"/>
        <g id="Grupo_1078303" data-name="Grupo 1078303">
          <g id="Grupo_1078305" data-name="Grupo 1078305">
            <path id="Trazado_821526" data-name="Trazado 821526" d="M14.161,28.093a1.7,1.7,0,0,1,.409-.178l.084-.4.684-.012.1.4a1.688,1.688,0,0,1,.414.163l.346-.227.491.476-.214.353a1.673,1.673,0,0,1,.178.409l.4.084.012.684-.4.1a1.676,1.676,0,0,1-.163.415l.227.346-.476.491-.353-.214a1.673,1.673,0,0,1-.409.178l-.084.4-.683.012-.1-.4a1.631,1.631,0,0,1-.414-.163l-.346.227-.492-.475.214-.354A1.673,1.673,0,0,1,13.411,30l-.4-.084-.012-.684.4-.1a1.682,1.682,0,0,1,.163-.415l-.227-.346.476-.492Zm.364.911a.734.734,0,1,0,1.037-.018A.734.734,0,0,0,14.525,29" transform="translate(-3.169 -6.707)" fill="#fff"/>
            <path id="Trazado_821527" data-name="Trazado 821527" d="M18.232,52.92H7.526a1.1,1.1,0,1,1,0-2.2H18.232a1.1,1.1,0,1,1,0,2.2" transform="translate(-1.567 -12.371)" fill="#fff"/>
            <path id="Trazado_821528" data-name="Trazado 821528" d="M18.232,45.506H7.526a1.1,1.1,0,1,1,0-2.2H18.232a1.1,1.1,0,1,1,0,2.2" transform="translate(-1.567 -10.563)" fill="#fff"/>
            <path id="Trazado_821529" data-name="Trazado 821529" d="M18.232,38.725H7.526a1.1,1.1,0,1,1,0-2.2H18.232a1.1,1.1,0,1,1,0,2.2" transform="translate(-1.567 -8.909)" fill="#fff"/>
            <path id="Trazado_821530" data-name="Trazado 821530" d="M56.459,32.143H46.318a1.1,1.1,0,1,1,0-2.2H56.459a1.1,1.1,0,1,1,0,2.2" transform="translate(-11.029 -7.304)" fill="#21c3fc"/>
            <path id="Trazado_821531" data-name="Trazado 821531" d="M56.459,39.76H46.318a1.1,1.1,0,1,1,0-2.2H56.459a1.1,1.1,0,1,1,0,2.2" transform="translate(-11.029 -9.161)" fill="#e0e0e0"/>
            <path id="Trazado_821532" data-name="Trazado 821532" d="M56.459,47.632H46.318a1.1,1.1,0,1,1,0-2.2H56.459a1.1,1.1,0,0,1,0,2.2" transform="translate(-11.029 -11.082)" fill="#6e40fb"/>
            <path id="Trazado_821533" data-name="Trazado 821533" d="M52.133,62.851H46.318a1.1,1.1,0,1,1,0-2.2h5.815a1.1,1.1,0,1,1,0,2.2" transform="translate(-11.029 -14.794)" fill="#21c3fc"/>
            <path id="Trazado_821534" data-name="Trazado 821534" d="M52.133,70.739H46.318a1.1,1.1,0,1,1,0-2.2h5.815a1.1,1.1,0,1,1,0,2.2" transform="translate(-11.029 -16.718)" fill="#21c3fc"/>
            <path id="Trazado_821535" data-name="Trazado 821535" d="M73.425,70.739H62.763a1.1,1.1,0,1,1,0-2.2H73.425a1.1,1.1,0,0,1,0,2.2" transform="translate(-15.041 -16.718)" fill="#e0e0e0"/>
            <path id="Trazado_821536" data-name="Trazado 821536" d="M65.449,77.755H54.787a1.1,1.1,0,1,1,0-2.2H65.449a1.1,1.1,0,0,1,0,2.2" transform="translate(-13.095 -18.429)" fill="#6e40fb"/>
            <path id="Trazado_821537" data-name="Trazado 821537" d="M69.763,85.756H62.44a.751.751,0,0,1-.751-.751v-.7a.751.751,0,0,1,.751-.751h7.323a.751.751,0,0,1,.752.751v.7a.751.751,0,0,1-.752.751" transform="translate(-15.047 -20.381)" fill="#6e40fb"/>
            <path id="Trazado_821538" data-name="Trazado 821538" d="M69.415,101.438H62.789a1.1,1.1,0,0,1,0-2.2h6.626a1.1,1.1,0,1,1,0,2.2" transform="translate(-15.047 -24.206)" fill="#6e40fb"/>
            <path id="Trazado_821539" data-name="Trazado 821539" d="M69.415,118H62.789a1.1,1.1,0,1,1,0-2.2h6.626a1.1,1.1,0,1,1,0,2.2" transform="translate(-15.047 -28.246)" fill="#6e40fb"/>
            <path id="Trazado_821540" data-name="Trazado 821540" d="M89.346,118H77.73a1.1,1.1,0,0,1,0-2.2H89.346a1.1,1.1,0,0,1,0,2.2" transform="translate(-18.692 -28.246)" fill="#1e5af9"/>
            <path id="Trazado_821541" data-name="Trazado 821541" d="M103.305,118h-1.673a1.1,1.1,0,1,1,0-2.2h1.673a1.1,1.1,0,1,1,0,2.2" transform="translate(-24.521 -28.246)" fill="#e0e0e0"/>
            <path id="Trazado_821542" data-name="Trazado 821542" d="M89.006,101.438H79.19a1.1,1.1,0,1,1,0-2.2h9.815a1.1,1.1,0,0,1,0,2.2" transform="translate(-19.047 -24.206)" fill="#e0e0e0"/>
            <path id="Trazado_821543" data-name="Trazado 821543" d="M110.53,108.71H79.19a1.1,1.1,0,1,1,0-2.2h31.34a1.1,1.1,0,0,1,0,2.2" transform="translate(-19.047 -25.98)" fill="#e0e0e0"/>
            <path id="Trazado_821544" data-name="Trazado 821544" d="M118.973,101.438H98.964a1.1,1.1,0,0,1,0-2.2h20.009a1.1,1.1,0,1,1,0,2.2" transform="translate(-23.871 -24.206)" fill="#1e5af9"/>
            <path id="Trazado_821545" data-name="Trazado 821545" d="M86.912,85.756H77.925a.751.751,0,0,1-.752-.751v-.7a.751.751,0,0,1,.752-.751h8.988a.751.751,0,0,1,.751.751v.7a.751.751,0,0,1-.751.751" transform="translate(-18.824 -20.381)" fill="#1e5af9"/>
            <path id="Trazado_821546" data-name="Trazado 821546" d="M98.412,85.756H95.654a.751.751,0,0,1-.751-.751v-.7a.751.751,0,0,1,.751-.751h2.758a.751.751,0,0,1,.751.751v.7a.751.751,0,0,1-.751.751" transform="translate(-23.148 -20.381)" fill="#e0e0e0"/>
            <path id="Trazado_821547" data-name="Trazado 821547" d="M116.637,85.756H105.574a.751.751,0,0,1-.751-.751v-.7a.751.751,0,0,1,.751-.751h11.063a.751.751,0,0,1,.751.751v.7a.751.751,0,0,1-.751.751" transform="translate(-25.568 -20.381)" fill="#e0e0e0"/>
            <path id="Trazado_821548" data-name="Trazado 821548" d="M77.675,77.755H75.3a1.1,1.1,0,1,1,0-2.2h2.376a1.1,1.1,0,1,1,0,2.2" transform="translate(-18.098 -18.429)" fill="#21c3fc"/>
            <path id="Trazado_821549" data-name="Trazado 821549" d="M100.184,77.755H85.056a1.1,1.1,0,1,1,0-2.2h15.128a1.1,1.1,0,1,1,0,2.2" transform="translate(-20.478 -18.429)" fill="#e0e0e0"/>
            <path id="Trazado_821550" data-name="Trazado 821550" d="M77.946,32.143H67.805a1.1,1.1,0,0,1,0-2.2H77.946a1.1,1.1,0,1,1,0,2.2" transform="translate(-16.27 -7.304)" fill="#1e5af9"/>
            <path id="Trazado_821551" data-name="Trazado 821551" d="M91.012,39.76H67.805a1.1,1.1,0,0,1,0-2.2H91.012a1.1,1.1,0,1,1,0,2.2" transform="translate(-16.27 -9.161)" fill="#21c3fc"/>
            <path id="Trazado_821552" data-name="Trazado 821552" d="M116,47.632H67.805a1.1,1.1,0,0,1,0-2.2H116a1.1,1.1,0,1,1,0,2.2" transform="translate(-16.27 -11.082)" fill="#e0e0e0"/>
            <path id="Trazado_821553" data-name="Trazado 821553" d="M90.527,53.176H67.8a1.1,1.1,0,1,1,0-2.2H90.527a1.1,1.1,0,1,1,0,2.2" transform="translate(-16.27 -12.434)" fill="#e0e0e0"/>
            <path id="Trazado_821554" data-name="Trazado 821554" d="M84.38,62.851H61.657a1.1,1.1,0,0,1,0-2.2H84.38a1.1,1.1,0,0,1,0,2.2" transform="translate(-14.771 -14.794)" fill="#1e5af9"/>
            <path id="Trazado_821555" data-name="Trazado 821555" d="M106.078,62.851H98.461a1.1,1.1,0,1,1,0-2.2h7.617a1.1,1.1,0,1,1,0,2.2" transform="translate(-23.748 -14.794)" fill="#6e40fb"/>
            <path id="Trazado_821556" data-name="Trazado 821556" d="M129.649,62.8H115.261a1.1,1.1,0,0,1,0-2.2h14.388a1.1,1.1,0,0,1,0,2.2" transform="translate(-27.846 -14.782)" fill="#21c3fc"/>
            <path id="Trazado_821557" data-name="Trazado 821557" d="M155.545,62.8H141.158a1.1,1.1,0,1,1,0-2.2h14.387a1.1,1.1,0,1,1,0,2.2" transform="translate(-34.162 -14.782)" fill="#e0e0e0"/>
            <path id="Trazado_821558" data-name="Trazado 821558" d="M13.6,60.767H7.527a1.1,1.1,0,1,1,0-2.2H13.6a1.1,1.1,0,1,1,0,2.2" transform="translate(-1.568 -14.285)" fill="#fff"/>
            <path id="Trazado_821559" data-name="Trazado 821559" d="M11.779,84.309H7.526a1.1,1.1,0,1,1,0-2.2h4.253a1.1,1.1,0,1,1,0,2.2" transform="translate(-1.567 -20.028)" fill="#fff"/>
            <path id="Trazado_821560" data-name="Trazado 821560" d="M19.332,68.614H7.526a1.1,1.1,0,1,1,0-2.2H19.332a1.1,1.1,0,1,1,0,2.2" transform="translate(-1.567 -16.199)" fill="#fff"/>
            <path id="Trazado_821561" data-name="Trazado 821561" d="M17.261,76.462H7.526a1.1,1.1,0,1,1,0-2.2h9.735a1.1,1.1,0,1,1,0,2.2" transform="translate(-1.567 -18.114)" fill="#fff"/>
            <path id="Trazado_821562" data-name="Trazado 821562" d="M39.378,31.037A1.117,1.117,0,1,1,38.26,29.92a1.118,1.118,0,0,1,1.117,1.117" transform="translate(-9.06 -7.298)" fill="#6e40fb"/>
            <path id="Trazado_821563" data-name="Trazado 821563" d="M39.378,23.274a1.117,1.117,0,1,1-1.117-1.117,1.118,1.118,0,0,1,1.117,1.117" transform="translate(-9.06 -5.404)" fill="#6e40fb"/>
            <path id="Trazado_821564" data-name="Trazado 821564" d="M39.378,38.631a1.117,1.117,0,1,1-1.117-1.117,1.118,1.118,0,0,1,1.117,1.117" transform="translate(-9.06 -9.15)" fill="#6e40fb"/>
            <path id="Trazado_821565" data-name="Trazado 821565" d="M39.378,46.526a1.117,1.117,0,1,1-1.117-1.117,1.118,1.118,0,0,1,1.117,1.117" transform="translate(-9.06 -11.076)" fill="#6e40fb"/>
            <path id="Trazado_821566" data-name="Trazado 821566" d="M39.378,54.42A1.117,1.117,0,1,1,38.26,53.3a1.118,1.118,0,0,1,1.117,1.117" transform="translate(-9.06 -13.001)" fill="#6e40fb"/>
            <path id="Trazado_821567" data-name="Trazado 821567" d="M39.378,62.315A1.117,1.117,0,1,1,38.26,61.2a1.118,1.118,0,0,1,1.117,1.117" transform="translate(-9.06 -14.927)" fill="#6e40fb"/>
            <path id="Trazado_821568" data-name="Trazado 821568" d="M39.378,70.209a1.117,1.117,0,1,1-1.117-1.117,1.118,1.118,0,0,1,1.117,1.117" transform="translate(-9.06 -16.853)" fill="#6e40fb"/>
            <path id="Trazado_821569" data-name="Trazado 821569" d="M39.378,78.1a1.117,1.117,0,1,1-1.117-1.117A1.118,1.118,0,0,1,39.378,78.1" transform="translate(-9.06 -18.778)" fill="#6e40fb"/>
            <path id="Trazado_821570" data-name="Trazado 821570" d="M39.378,86a1.117,1.117,0,1,1-1.117-1.117A1.118,1.118,0,0,1,39.378,86" transform="translate(-9.06 -20.704)" fill="#6e40fb"/>
            <path id="Trazado_821571" data-name="Trazado 821571" d="M39.378,93.893a1.117,1.117,0,1,1-1.117-1.117,1.118,1.118,0,0,1,1.117,1.117" transform="translate(-9.06 -22.63)" fill="#6e40fb"/>
            <path id="Trazado_821572" data-name="Trazado 821572" d="M39.378,101.787a1.117,1.117,0,1,1-1.117-1.117,1.118,1.118,0,0,1,1.117,1.117" transform="translate(-9.06 -24.555)" fill="#6e40fb"/>
            <path id="Trazado_821573" data-name="Trazado 821573" d="M39.378,109.682a1.117,1.117,0,1,1-1.117-1.117,1.118,1.118,0,0,1,1.117,1.117" transform="translate(-9.06 -26.481)" fill="#6e40fb"/>
            <path id="Trazado_821574" data-name="Trazado 821574" d="M39.378,117.576a1.117,1.117,0,1,1-1.117-1.117,1.118,1.118,0,0,1,1.117,1.117" transform="translate(-9.06 -28.406)" fill="#6e40fb"/>
            <path id="Trazado_821575" data-name="Trazado 821575" d="M133.722.262H4.347A4.085,4.085,0,0,0,.262,4.347v7.742h136.36V3.162a2.9,2.9,0,0,0-2.9-2.9" transform="translate(-0.064 -0.064)" fill="#6e40fb" stroke="#6e40fb" stroke-width="1"/>
            <path id="Trazado_821576" data-name="Trazado 821576" d="M10.682,8.033A1.624,1.624,0,1,1,9.058,6.409a1.624,1.624,0,0,1,1.624,1.624" transform="translate(-1.813 -1.563)" fill="#fff"/>
            <path id="Trazado_821577" data-name="Trazado 821577" d="M17.293,8.033a1.624,1.624,0,1,1-1.624-1.624,1.624,1.624,0,0,1,1.624,1.624" transform="translate(-3.426 -1.563)" fill="#fff"/>
            <path id="Trazado_821578" data-name="Trazado 821578" d="M23.9,8.033a1.624,1.624,0,1,1-1.624-1.624A1.624,1.624,0,0,1,23.9,8.033" transform="translate(-5.038 -1.563)" fill="#fff"/>
          </g>
        </g>
      </g>
    </g>
  </g>
</svg>
