<svg xmlns="http://www.w3.org/2000/svg" xmlns:xlink="http://www.w3.org/1999/xlink" width="190" height="116.885" viewBox="0 0 190 116.885">
  <defs>
    <clipPath id="clip-path">
      <rect id="Rectángulo_386333" data-name="Rectángulo 386333" width="135.547" height="116.885" transform="translate(0 0)" fill="none"/>
    </clipPath>
  </defs>
  <g id="Grupo_1078287" data-name="Grupo 1078287" transform="translate(-180 -886.115)">
    <g id="Grupo_1073375" data-name="Grupo 1073375" transform="translate(-210 -2222)">
      <rect id="Rectángulo_381829" data-name="Rectángulo 381829" width="190" height="60" rx="7" transform="translate(390 3141)" fill="#6e40fb"/>
    </g>
    <g id="Grupo_1067370" data-name="Grupo 1067370" transform="translate(31 483)">
      <g id="Grupo_1063897" data-name="Grupo 1063897" transform="translate(0 -17)">
        <rect id="Rectángulo_373435" data-name="Rectángulo 373435" width="85" height="85" rx="5" transform="translate(180 446)" fill="#e9e2fe"/>
      </g>
      <g id="Grupo_1078306" data-name="Grupo 1078306" transform="translate(197.227 403.115)">
        <g id="Grupo_1078306-2" data-name="Grupo 1078306" clip-path="url(#clip-path)">
          <path id="Trazado_821580" data-name="Trazado 821580" d="M6.778.054S1.069,1.284.076,5.337s7.952,101,8.311,103.357c.564,3.709,3.693,8.421,10.741,8.168,6.143-.221,89.852-.026,110.93.023,2.8.007,4.484-2.378,4.853-5.216L31.268,105.551Z" fill="#e0e0e0"/>
          <path id="Trazado_821581" data-name="Trazado 821581" d="M4.178,3.287l8.978,104.546a3.383,3.383,0,0,0,3.311,3.044l118.444.532L112.158,88.83l-76.945-.542L26.985,6.382a2.571,2.571,0,0,0-1.972-2.233L7.777.132a2.946,2.946,0,0,0-3.6,3.155" fill="#e0e0e0"/>
          <path id="Trazado_821582" data-name="Trazado 821582" d="M4.179,3.287a2.247,2.247,0,0,1-.019-.5,2.8,2.8,0,0,1,.461-1.414A2.979,2.979,0,0,1,6.635.042,3.566,3.566,0,0,1,8.21.171l1.754.4,9.148,2.1,5.8,1.336A2.712,2.712,0,0,1,27.1,6.338q.172,1.68.356,3.456c1.926,18.945,4.676,46,7.977,78.471l-.22-.2,76.945.509h.1l.076.074c7.291,7.234,14.952,14.836,22.756,22.576l.45.448-.636,0-5.247-.023-86.828-.411-19.5-.1-4.706-.024c-.783-.009-1.542,0-2.337-.022a3.59,3.59,0,0,1-3.333-3.068c-.087-.777-.136-1.517-.2-2.273l-.381-4.472c-1.005-11.823-1.939-22.836-2.792-32.891-1.693-20.1-3.062-36.373-4.009-47.629-.461-5.617-.818-9.98-1.063-12.952-.115-1.473-.2-2.6-.263-3.369s-.071-1.15-.071-1.15.05.387.125,1.145S4.48,6.325,4.618,7.8c.267,2.97.657,7.33,1.161,12.943.986,11.253,2.41,27.517,4.171,47.614.873,10.053,1.831,21.065,2.857,32.885q.19,2.217.387,4.471c.068.746.122,1.518.2,2.251a3.145,3.145,0,0,0,2.922,2.683c.75.021,1.543.011,2.315.018l4.706.018,19.5.076,86.826.37,5.246.024-.183.445c-7.8-7.743-15.462-15.346-22.751-22.582l.178.075-76.945-.576h-.2l-.019-.2C31.766,55.827,29.08,28.77,27.2,9.82q-.175-1.774-.341-3.454a2.473,2.473,0,0,0-2-2.134L19.066,2.866,9.932.7,8.181.288A3.483,3.483,0,0,0,6.65.144,2.91,2.91,0,0,0,4.679,1.407a2.852,2.852,0,0,0-.485,1.378c-.026.331,0,.5-.015.5" fill="#263238"/>
          <path id="Trazado_821583" data-name="Trazado 821583" d="M90.876,108.693h11.01L87.967,90.638H81.432Z" fill="#263238"/>
          <path id="Trazado_821584" data-name="Trazado 821584" d="M8.248,8.013l8.408,90.836L32.321,86.39,25.577,9.858a1.328,1.328,0,0,0-1.135-1.2L9.757,6.561A1.329,1.329,0,0,0,8.248,8.013" fill="#263238"/>
          <path id="Trazado_821585" data-name="Trazado 821585" d="M25.072,108.693H36.436L47.983,90.638H41.448Z" fill="#263238"/>
          <path id="Trazado_821586" data-name="Trazado 821586" d="M39.019,108.693h11.01l6.033-18.055H49.527Z" fill="#263238"/>
          <path id="Trazado_821587" data-name="Trazado 821587" d="M52.5,108.693h11.01L64.1,90.638H57.563Z" fill="#263238"/>
          <path id="Trazado_821588" data-name="Trazado 821588" d="M64.99,108.693H76L71.935,90.638H65.4Z" fill="#263238"/>
          <path id="Trazado_821589" data-name="Trazado 821589" d="M78.015,108.693h11.01l-8.97-18.055H73.521Z" fill="#263238"/>
          <path id="Trazado_821590" data-name="Trazado 821590" d="M101.331,105.174c0,.086-16.789.156-37.494.156s-37.5-.07-37.5-.156,16.786-.156,37.5-.156,37.494.07,37.494.156" fill="#e0e0e0"/>
          <path id="Trazado_821591" data-name="Trazado 821591" d="M99.336,101.863c0,.086-15.944.156-35.608.156s-35.611-.07-35.611-.156,15.941-.156,35.611-.156,35.608.07,35.608.156" fill="#e0e0e0"/>
          <path id="Trazado_821592" data-name="Trazado 821592" d="M99.336,98.859c0,.173-15,.313-33.506.313s-33.508-.14-33.508-.313,15-.312,33.508-.312,33.506.139,33.506.312" fill="#e0e0e0"/>
          <path id="Trazado_821593" data-name="Trazado 821593" d="M99.8,96.117c0,.173-14.68.312-32.785.312s-32.788-.139-32.788-.312S48.9,95.8,67.012,95.8s32.785.14,32.785.313" fill="#e0e0e0"/>
          <path id="Trazado_821594" data-name="Trazado 821594" d="M101.331,94.115c0,.173-14.776.313-33,.313s-33-.14-33-.313,14.773-.312,33-.312,33,.139,33,.312" fill="#e0e0e0"/>
          <path id="Trazado_821595" data-name="Trazado 821595" d="M102.957,92.024c0,.173-15.053.313-33.617.313s-33.621-.14-33.621-.313,15.05-.312,33.621-.312,33.617.139,33.617.312" fill="#e0e0e0"/>
          <path id="Trazado_821596" data-name="Trazado 821596" d="M14.812,107.833l20.52-19.2" fill="#e0e0e0"/>
          <path id="Trazado_821597" data-name="Trazado 821597" d="M35.332,88.635c.1.1-4.416,4.488-10.082,9.789s-10.339,9.514-10.438,9.409,4.415-4.487,10.083-9.79,10.338-9.513,10.437-9.408" fill="#263238"/>
        </g>
      </g>
    </g>
  </g>
</svg>
